<svg width="497.9000000000001" height="69.49352693356813" viewBox="0 0 445.9459445801489 62.242129967053735" class="looka-1j8o68f"><defs id="SvgjsDefs1174"></defs><g id="SvgjsG1175" featurekey="nameLeftFeature-0" transform="matrix(1.6538032183150904,0,0,1.6538032183150904,-0.46306475523818236,10.227125977951832)" fill="#111111"><path d="M0.32 19.68 c0.1 -0.28 0.16 -0.34 0.38 -0.34 c0.66 0 0.8 0.06 1.28 0.06 c0.18 0 0.26 -0.16 0.34 -0.26 l-0.04 -3.08 c0 -0.04 0.04 -0.1 0.04 -0.14 c0 0.02 -0.04 -0.28 -0.04 -0.36 c0 -0.02 -0.02 -0.4 0.04 -0.58 c0 -0.02 -0.04 -0.08 -0.04 -0.12 l0 -1.42 c0.04 -0.04 0.04 -0.1 0.04 -0.14 c0 -0.12 -0.04 -0.18 -0.04 -0.28 c0 0 -0.06 -4.8 -0.06 -6.36 l0.04 -0.08 l0 -0.94 c-0.14 -0.2 -0.6 -0.06 -0.66 -0.16 l-0.12 0.04 l0 0.02 c-0.04 0 -0.16 -0.06 -0.38 -0.06 c-0.04 0 -0.24 0.04 -0.28 0.08 c-0.32 0 -0.54 0.06 -0.54 -0.36 c0 -0.16 0.1 -0.38 0.76 -0.38 c0.08 0 0.26 0.04 0.38 0.04 c0.08 0 1.12 -0.04 1.14 -0.04 c0.14 0 0.38 0.06 0.46 0.06 c0.08 0.02 1.12 -0.08 1.6 -0.08 c0.06 0 0.04 0.18 0.18 0.18 c0 0 0.02 0 0.02 -0.02 s-0.02 -0.06 -0.02 -0.1 c0.22 0 0.44 -0.06 0.76 -0.12 c0.02 0.02 0.1 0.04 0.08 0.06 c0.02 0 0.06 -0.04 0.06 -0.08 c0.02 0 0.12 0.02 0.16 0.06 c0.1 -0.02 0.36 -0.08 0.38 -0.08 c0.78 0 0.82 0.36 0.82 0.56 c0 0.1 -0.14 0.3 -0.24 0.3 c-0.4 0 -1.16 -0.1 -1.34 -0.1 c-0.16 0 -0.24 0.26 -0.26 0.38 l0.02 6.7 c0 0.1 -0.02 0.38 -0.02 0.42 c0 0.02 0.02 -0.02 0.02 0.3 c0 0.7 -0.02 0.98 -0.02 1.36 c0 0.54 0.02 0.48 0.02 0.62 l0 2.32 c0 0.1 -0.06 1.68 0.24 1.74 c0.04 0 0.76 0.02 1.1 -0.02 l0.04 -0.04 l0.36 0 c0.22 0.1 0.26 0.3 0.26 0.38 c0 0.1 -0.16 0.34 -0.22 0.34 c-0.94 0 -2.38 0.06 -2.58 0.06 c0 0 -0.6 -0.04 -0.9 -0.04 c-0.88 0 -2 0.06 -2.64 0.06 c-0.52 0 -0.58 -0.16 -0.58 -0.36 z M0.74 19.92 c0 -0.02 -0.02 -0.02 -0.04 -0.02 s-0.04 0 -0.04 0.02 s0.02 0.04 0.04 0.04 s0.04 -0.02 0.04 -0.04 z M0.86 19.88 c0.08 0 0.12 0.04 0.2 0.04 c0.04 0 0.1 0 0.16 -0.04 c-0.14 0 -0.18 -0.14 -0.24 -0.16 c-0.02 0 -0.12 0 -0.12 0.12 l0 0.04 z M1.26 19.88 c-0.02 0 -0.04 0.02 -0.04 0.04 s0.02 0.04 0.04 0.04 c0 0 0.02 -0.02 0.02 -0.04 s-0.02 -0.04 -0.02 -0.04 z M1.76 19.84 l0.04 0.04 c0.1 0 0.12 0 0.16 -0.04 l-0.04 -0.02 c-0.18 0 -0.12 0 -0.16 0.02 z M6.06 19.68 c-0.12 0.04 -0.1 0.08 -0.1 0.2 c0.1 -0.04 0.08 -0.1 0.12 -0.2 l-0.02 0 z M6.74 19.68 c-0.14 0 -0.14 0.14 -0.16 0.2 l0.24 0 c0 -0.14 -0.04 -0.2 -0.08 -0.2 z M5.24 19.82 l-0.06 0.02 c0 0.02 0 0.02 0.02 0.02 z M5.48 19.84 l-0.04 -0.02 z M6.98 19.64 l0 0.12 c0.06 0.02 0.1 -0.08 0.1 -0.12 l-0.1 0 z M0.62 19.52 c-0.14 0 -0.14 0.14 -0.14 0.2 c0.08 -0.06 0.2 -0.04 0.22 -0.08 c0 -0.02 0.02 -0.12 -0.08 -0.12 z M2.12 19.66 l0.04 0.06 l0 -0.06 l-0.04 0 z M0.94 19.56 l0 0.04 l0.04 -0.04 l-0.04 0 z M6.54 19.52 c0 0.02 -0.02 0.02 -0.02 0.04 s0.02 0.02 0.06 0.04 l0.04 -0.04 l-0.04 -0.08 c-0.02 0 -0.04 0.02 -0.04 0.04 z M6.86 19.56 c0.02 0.04 0.06 0.04 0.1 0.04 c0 -0.02 -0.02 -0.06 -0.02 -0.1 z M2.54 19.3 c-0.02 0.02 -0.02 0.02 -0.02 0.04 s0.06 0.02 0.1 0.02 l0 -0.06 l-0.08 0 z M4.9 6.4 c-0.02 0 -0.04 0 -0.04 0.02 l0.04 0 l0.02 0 c0 -0.02 0 -0.02 -0.02 -0.02 z M5.92 5.32 c-0.02 0 -0.04 0.02 -0.04 0.04 s0.02 0.04 0.04 0.04 s0.02 -0.02 0.02 -0.04 s0 -0.04 -0.02 -0.04 z M0.42 5.140000000000001 c-0.02 0 -0.04 0.02 -0.04 0.04 c0 0 0.02 0.02 0.04 0.02 s0.02 -0.02 0.02 -0.02 c0 -0.02 0 -0.04 -0.02 -0.04 z M1.56 5.039999999999999 c-0.02 0 -0.04 0.02 -0.04 0.04 c0 0 0.02 0.02 0.04 0.02 l0 -0.06 z M1.84 5.039999999999999 c0 0.02 -0.02 0.02 -0.02 0.02 c0 0.02 0.02 0.02 0.06 0.04 l0 -0.06 l-0.04 0 z M0.58 5.02 c-0.08 0 -0.06 0.02 -0.06 0.06 c0.04 0 0.08 0 0.1 -0.04 z M12.959 19.42 c-0.18 0 -0.28 0.04 -0.4 0.06 c-0.18 0 -0.14 0 -0.16 -0.02 l-0.06 0.02 c0 0.06 0.02 0.06 0.06 0.08 c0 -0.02 -0.06 0.04 -0.1 0.12 l0.02 0 c0 0.02 -0.64 0.52 -0.74 0.52 c-0.46 0 -0.46 -0.54 -0.46 -0.62 c0 -0.04 0 -0.04 0.02 -0.1 c0 -2.24 -0.1 -1.9 -0.1 -3.24 c0 0 0.02 -0.02 0.02 -0.04 c0 -0.06 -0.04 -0.16 -0.04 -0.26 c0 -0.18 0.08 -0.3 0.6 -0.3 c0.06 0 0.14 0.06 0.32 0.38 c0 0.1 0.36 0.4 0.4 0.58 c-0.02 0.02 -0.04 0.04 -0.04 0.06 c0 0.08 0.3 0.2 0.3 0.32 c0 0.02 -0.02 0.04 -0.02 0.04 c0 0.12 0.2 0.22 0.2 0.28 c0.24 0.44 0.26 0.42 0.58 0.74 c0.1 0 0.84 1.32 1.4 1.32 c0.72 0.06 0.86 0.32 1.62 0.32 c0.42 0 0.36 -0.02 0.5 -0.1 c-0.04 0.04 -0.02 0.04 -0.04 0.04 c0 0 0.14 -0.2 0.8 -0.2 c0.3 0 0.88 -0.56 1 -0.64 c0.04 -0.04 0.24 -0.12 0.24 -0.16 c0 -0.12 0.42 -0.7 0.48 -0.76 c-0.02 -0.04 -0.02 -0.08 -0.02 -0.1 c0 -0.3 0.32 0.16 0.32 -1.7 c-0.02 -0.06 -0.08 -0.7 -0.22 -0.82 c-0.06 0 -0.06 -0.46 -0.54 -0.78 c0 -0.02 0.02 -0.12 0.02 -0.16 c-0.78 -0.04 -0.38 -0.44 -0.9 -0.44 c-0.98 0 -0.2 -0.3 -1.26 -0.3 c-0.1 -0.1 -0.98 -0.08 -1.18 -0.2 c-0.04 0 -0.18 0.04 -0.22 0.04 c-0.24 0 -0.04 -0.2 -0.58 -0.2 c-1.82 -0.1 -0.84 -0.44 -1.46 -0.44 l0 -0.04 c0.06 0 0.14 -0.02 0.2 0.04 c0 0 0.1 -0.04 0.1 -0.06 c0 0 -0.04 -0.04 -0.04 -0.06 l-0.62 0 c-0.2 -0.18 -0.18 -0.3 -0.34 -0.34 c0 -0.02 -0.22 0.02 -0.56 -0.44 c0 -0.14 -0.44 -0.66 -0.54 -0.74 c-0.18 -0.94 -0.4 -1.5 -0.4 -2.22 c0.04 -0.22 0 -0.5 0.08 -0.64 l0 0.02 c0.02 0 0.1 -0.68 0.16 -0.64 c-0.02 0 -0.04 -0.02 -0.04 -0.04 c0 -0.16 0.42 -0.6 0.42 -0.76 c-0.02 -0.02 -0.02 -0.04 -0.02 -0.04 c0 -0.14 0.32 -0.28 0.32 -0.34 s0.26 -0.48 0.38 -0.56 c-0.02 0.02 -0.02 0.04 -0.02 0.04 c-0.02 0 0.98 -0.66 1 -0.68 c1.22 -0.2 0.16 -0.54 1.52 -0.54 l1.96 0 c0.04 0 0.46 0 0.66 0.16 c0.82 0.04 0.68 0.52 1.04 0.52 c0.66 0 0.48 -0.04 0.68 -0.24 c-0.08 -0.1 0.54 -0.02 0.6 -0.28 l0.26 0 c0.04 0 0.2 0.16 0.22 0.2 c0.06 2.48 0.18 2.42 0.18 3.72 c0 0.1 -0.18 0.16 -0.26 0.32 l-0.28 0 l0 -0.08 c-0.06 0 -0.48 -0.28 -0.48 -0.5 l0 0.02 c-0.02 0 -0.16 -0.5 -0.38 -0.58 l0.02 0 c0 -0.06 -0.26 -0.26 -0.26 -0.4 c-0.3 -0.44 -0.26 -0.42 -0.5 -0.66 l0.02 0 c0 -0.02 -0.5 -0.32 -0.5 -0.46 c0 -0.3 -0.74 -0.66 -0.9 -0.82 c0.06 -0.12 -0.52 -0.28 -1.1 -0.28 c-0.02 0 -0.04 0.02 -0.06 0.02 c-0.2 0 -0.12 -0.34 -0.18 -0.34 c-0.04 0.04 -0.06 0.04 -0.08 0.08 c-0.02 0 -0.1 -0.02 -0.16 -0.04 c-0.12 0.44 -0.32 0.2 -0.38 0.32 c-0.12 -0.06 -0.04 -0.12 -0.12 -0.14 c-0.42 0.2 -0.3 0.18 -1.22 0.64 c-0.6 1.18 -0.28 -0.28 -0.94 1.52 l0 0.88 l0 -0.02 c0.02 0 0.1 0.78 0.28 0.88 c0.04 0.06 0.3 0.26 0.38 0.42 c0.14 0 0.32 0.52 0.9 0.52 c0.24 0.26 1.18 0.2 2.14 0.44 c0.28 0.08 1.74 0.08 2.08 0.48 l-0.02 0 c0 0.04 0.48 0.08 0.56 0.14 c0 -0.04 0.96 0.56 0.96 0.68 c0 0.02 0 0.02 -0.02 0.02 c0.34 0 0.68 0.76 0.82 0.86 c0.1 0.72 0.38 0.5 0.38 1.06 c0.24 0.76 0.2 0.94 0.2 1.88 c-0.06 0.06 -0.1 0.76 -0.2 0.8 c0 1.02 -0.52 0.96 -0.52 1.4 l-0.26 0.24 c0 0.04 -0.02 0.12 -0.02 0.12 c-0.4 0.36 -0.26 0.42 -0.44 0.5 c-0.06 0 -0.16 0.3 -0.5 0.4 c-0.38 0.58 -0.54 0.12 -0.94 0.7 c-1.8 0 0.04 0.44 -1.96 0.44 c-2.28 0 -1.48 -0.06 -2.22 -0.24 c-0.02 0 -0.02 0.02 -0.04 0.02 c-0.12 0 -0.3 -0.16 -0.46 -0.16 c0 -0.02 -0.3 -0.06 -0.3 -0.1 c0 0.02 0.02 0.02 0.02 0.02 c0 -0.02 -0.28 -0.42 -0.5 -0.42 c-0.04 0 -0.08 0.02 -0.12 0.04 z M16.759 20.14 c-0.02 0 -0.02 0.02 -0.02 0.04 c0 0 0 0.02 0.02 0.02 s0.02 -0.02 0.02 -0.02 c0 -0.02 0 -0.04 -0.02 -0.04 z M15.259 20.1 c-0.02 0 -0.02 0.02 -0.02 0.02 c0 0.02 0 0.02 0.02 0.02 s0.02 0 0.02 -0.02 c0 0 0 -0.02 -0.02 -0.02 z M17.159 20.1 c-0.02 0 -0.04 0.02 -0.04 0.04 s0.02 0.04 0.04 0.04 s0.02 -0.02 0.02 -0.04 s0 -0.04 -0.02 -0.04 z M16.719 20.06 c-0.02 0 -0.04 0.02 -0.04 0.04 s0.02 0.04 0.04 0.04 s0.02 -0.02 0.02 -0.04 s0 -0.04 -0.02 -0.04 z M17.159 20.02 c-0.04 0 -0.06 0 -0.06 0.02 l0.02 0.02 l0.04 0 l0 -0.04 z M15.699 20.02 c-0.02 0 -0.02 0 -0.02 0.02 c0 0 0 0.02 0.02 0.02 s0.02 -0.02 0.02 -0.02 c0 -0.02 0 -0.02 -0.02 -0.02 z M17.159 19.88 l0 0.1 c0.04 -0.02 0.08 -0.06 0.1 -0.1 l-0.1 0 z M17.698999999999998 19.82 c-0.18 0 -0.18 0.06 -0.18 0.12 c0.02 0 0.06 -0.02 0.1 -0.04 c0.02 0 0.08 0.02 0.12 0.04 l0.08 -0.04 s0 -0.08 -0.12 -0.08 z M15.318999999999999 19.84 l0 0.04 l0.08 0 l0 -0.04 l-0.08 0 z M16.319 19.84 c-0.02 0 -0.02 0.02 -0.02 0.04 c0 0 0 0.02 0.02 0.02 s0.02 -0.02 0.02 -0.02 c0 -0.02 0 -0.04 -0.02 -0.04 z M16.879 19.84 c-0.02 0 -0.04 0.02 -0.04 0.04 c0 0 0.02 0.02 0.04 0.02 s0.02 -0.02 0.02 -0.02 c0 -0.02 0 -0.04 -0.02 -0.04 z M15.039 19.72 c-0.02 0 -0.04 0 -0.04 0.02 l0.04 0 l0.02 0 c0 -0.02 0 -0.02 -0.02 -0.02 z M14.419 19.66 c-0.02 0 -0.04 0 -0.06 0.02 z M14.359 19.58 c-0.02 0 -0.04 0.02 -0.04 0.04 s0.02 0.04 0.04 0.04 s0.02 -0.02 0.02 -0.04 s0 -0.04 -0.02 -0.04 z M14.419 19.56 c-0.02 0 -0.02 0.02 -0.02 0.04 c0 0 0 0.02 0.02 0.02 s0.02 -0.02 0.02 -0.02 c0 -0.02 0 -0.04 -0.02 -0.04 z M11.559000000000001 19.52 c-0.02 0 -0.04 0.02 -0.04 0.04 c0 0 0.02 0.02 0.04 0.02 l0.02 -0.02 c0 -0.02 -0.02 -0.04 -0.02 -0.04 z M14.359 19.52 c-0.02 0 -0.04 0.02 -0.04 0.04 c0 0 0.02 0.02 0.04 0.02 s0.02 -0.02 0.02 -0.02 c0 -0.02 0 -0.04 -0.02 -0.04 z M11.279 19.46 c-0.02 0 -0.04 0.02 -0.04 0.02 c0 0.02 0.02 0.04 0.04 0.04 c0 0 0.02 -0.02 0.02 -0.04 z M14.519 19.48 l-0.04 0 c0 0.02 0 0.04 0.02 0.04 c0 0 0.02 -0.02 0.02 -0.04 z M18.439 19.46 c-0.02 0 -0.02 0.02 -0.02 0.02 l0.04 0 c0 0.02 0 -0.02 -0.02 -0.02 z M11.279 19.12 l0 -0.08 l0 0.08 z M19.359 19.08 c-0.02 0 -0.04 0.02 -0.04 0.04 l0.06 0 c0 -0.02 -0.02 -0.04 -0.02 -0.04 z M19.639 18.84 l0 0.04 l0.02 0 z M19.579 18.78 c-0.02 0 -0.04 0.02 -0.04 0.04 c0 0 0.02 0.02 0.04 0.02 s0.02 -0.02 0.02 -0.02 c0 -0.02 0 -0.04 -0.02 -0.04 z M19.698999999999998 18.8 l0.04 -0.02 z M19.819000000000003 18.68 l0 0 l-0.04 0.04 c0.02 -0.02 0.02 -0.04 0.04 -0.04 z M11.339 18.66 c-0.02 0 -0.04 0 -0.04 0.02 c0 0 0.04 0 0.04 -0.02 l0 0 z M11.279 18.46 l0 0.12 l0.02 0 c0 -0.02 0 -0.1 -0.02 -0.12 z M20.439 18.02 c-0.02 0 -0.02 0.02 -0.02 0.02 s0 0.02 0.02 0.02 s0.02 -0.02 0.02 -0.02 s0 -0.02 -0.02 -0.02 z M19.819000000000003 16.38 l0.04 0.02 l0.04 -0.02 l-0.08 0 z M11.279 16.06 l-0.04 0 c0 0.02 0 0.04 0.02 0.04 c0 0 0.02 -0.02 0.02 -0.04 z M21.239 15.719999999999999 l0 -0.02 c-0.02 0 -0.02 0 -0.02 0.02 s0 0.04 0.02 0.04 l0 -0.04 z M12.839 12.34 c-0.02 0 -0.04 0.02 -0.04 0.04 s0.02 0.04 0.04 0.04 s0.02 -0.02 0.02 -0.04 s0 -0.04 -0.02 -0.04 z M12.019 11.48 c-0.02 0 -0.04 0.02 -0.04 0.04 c0 0 0.02 0.02 0.04 0.02 l0.02 -0.02 c0 -0.02 -0.02 -0.04 -0.02 -0.04 z M18.439 11.28 c-0.02 0 -0.02 0.02 -0.02 0.04 c0 0 0 0.02 0.02 0.02 s0.02 -0.02 0.02 -0.02 c0 -0.02 0 -0.04 -0.02 -0.04 z M11.779 11.2 l0 0.04 l0.04 -0.04 l-0.04 0 z M13.679 11.02 c0 0 -0.02 0 -0.02 0.02 l0.04 0 c0 -0.02 -0.02 -0.02 -0.02 -0.02 z M15.658999999999999 10.76 c-0.04 0 -0.14 0.04 -0.14 0.06 s0.02 0.02 0.02 0.02 c0.04 0 0.08 -0.04 0.12 -0.08 z M11.399000000000001 10.18 c-0.02 0 -0.04 -0.02 -0.04 0.1 c0 0.02 0.02 0.06 0.02 0.06 c0.02 0 0.04 -0.04 0.04 -0.06 c0 -0.04 -0.02 -0.08 -0.02 -0.1 z M11.339 9.98 c-0.02 0 -0.04 0.02 -0.04 0.04 s0.02 0.04 0.04 0.04 l0 -0.08 z M19.899 6.460000000000001 c-0.02 0 -0.04 0.02 -0.04 0.04 c0 0 0.02 0.02 0.04 0.02 s0.02 -0.02 0.02 -0.02 c0 -0.02 0 -0.04 -0.02 -0.04 z M20.179000000000002 6.460000000000001 c-0.02 0 -0.02 0.02 -0.02 0.04 c0 0 0 0.02 0.02 0.02 s0.02 -0.02 0.02 -0.02 c0 -0.02 0 -0.04 -0.02 -0.04 z M20.259 6.460000000000001 c-0.02 0 -0.04 0.02 -0.04 0.04 c0 0 0.02 0.02 0.04 0.02 l0.02 -0.02 c0 -0.02 -0.02 -0.04 -0.02 -0.04 z M15.779 6.02 l0 -0.22 c0.02 -0.02 0.06 -0.04 0.08 -0.06 l0.04 0.04 c0 0.06 -0.08 0.16 -0.08 0.28 z M20.179000000000002 5.9399999999999995 c-0.02 0 -0.02 0.02 -0.02 0.04 c0 0 0 0.02 0.02 0.02 s0.02 -0.02 0.02 -0.02 c0 -0.02 0 -0.04 -0.02 -0.04 z M13.619 5.84 c-0.1 0.02 -0.1 0.1 -0.1 0.1 c0.02 -0.02 0.1 -0.06 0.1 -0.08 l0 -0.02 z M13.139 5.74 c0 0.04 0.06 0.06 0.1 0.06 c-0.02 -0.06 -0.1 -0.06 -0.12 -0.06 l0.02 0 z M20.099 5.779999999999999 c0.02 0.02 0.04 0.02 0.06 0.02 c0.08 0 0.1 -0.06 0.1 -0.12 z M13.459 5.619999999999999 c-0.06 0 -0.04 0.06 -0.04 0.12 l0.04 0 l0 -0.12 z M17.419 5.4399999999999995 c-0.06 0.1 -0.04 0.18 -0.04 0.26 c0.08 -0.02 0.1 -0.12 0.1 -0.22 c-0.02 -0.02 -0.02 -0.04 -0.06 -0.04 z M13.459 5.52 c-0.02 0 -0.04 0 -0.04 0.02 l0.04 0 l0.02 0 c0 -0.02 0 -0.02 -0.02 -0.02 z M19.899 5.48 c0 -0.02 -0.02 -0.02 -0.06 -0.02 c-0.02 0 -0.04 0 -0.04 0.02 s0.02 0.04 0.04 0.04 c0.04 0 0.06 -0.02 0.06 -0.04 z M19.979 5.42 c-0.02 0 -0.04 0.02 -0.04 0.02 l0.02 0 l0.02 0 l0 -0.02 z M17.999000000000002 5.42 l-0.02 -0.02 z M16.759 5.4 c0 -0.02 -0.02 -0.02 -0.02 -0.02 s-0.02 0 -0.02 0.02 s0.02 0.02 0.02 0.02 s0.02 0 0.02 -0.02 z M19.479 5.4 c0 -0.02 -0.02 -0.02 -0.02 -0.02 c-0.02 0 -0.02 0 -0.02 0.02 s0 0.02 0.02 0.02 c0 0 0.02 0 0.02 -0.02 z M19.739 5.359999999999999 c-0.02 0 -0.04 0.02 -0.04 0.04 c0 0 0.02 0.02 0.04 0.02 s0.02 -0.02 0.02 -0.02 c0 -0.02 0 -0.04 -0.02 -0.04 z M20.179000000000002 5.32 l0 0.08 l0.04 -0.04 z M14.099 5.16 c0 0.06 0.04 0.14 0.04 0.2 l0.04 -0.1 s-0.02 -0.08 -0.04 -0.14 z M17.619 5.24 c-0.02 0 -0.04 0.02 -0.04 0.02 s0.02 0.02 0.04 0.02 s0.02 -0.02 0.02 -0.02 s0 -0.02 -0.02 -0.02 z M19.799 5.119999999999999 c-0.06 0.02 -0.08 0.08 -0.1 0.14 c0.12 0 0.1 -0.06 0.1 -0.14 z M20.179000000000002 5.24 l0 0.02 l0.04 0 z M20.179000000000002 5.119999999999999 c-0.02 0 -0.02 0.02 -0.02 0.02 c0 0.02 0 0.02 0.02 0.02 s0.02 0 0.02 -0.02 c0 0 0 -0.02 -0.02 -0.02 z M15.999 5.039999999999999 c-0.02 0.06 0.1 0.08 0.1 0.08 c0.04 -0.06 0.24 0.02 0.22 -0.08 l-0.32 0 z M17.259 5.08 l-0.04 0 c0 0.02 0 0.04 0.02 0.04 c0 0 0.02 -0.02 0.02 -0.04 z M14.879000000000001 5 l0 0.04 l0.08 0 l0 -0.04 l-0.08 0 z M15.259 4.960000000000001 c-0.06 0 -0.14 0.06 -0.16 0.08 l0.16 0 l0 -0.08 z M16.759 5 l0 0.04 l0.12 0 z M28.698 20.06 l-2.06 -0.06 l-0.04 0.02 l0.08 -0.12 c-0.02 -0.02 -0.04 -0.04 -0.06 -0.04 c-0.04 0 -0.08 0.14 -0.14 0.2 l-1.18 0 c-0.08 -0.14 -0.2 -0.22 -0.2 -0.32 c0 -0.06 0.04 -0.14 0.04 -0.18 c0.08 -0.12 -0.12 -0.24 1.14 -0.24 c0.12 0 0.26 0.04 0.4 0.04 c0.2 0 0.4 -0.08 0.44 -0.42 c0 -0.68 -0.02 -1.28 -0.02 -1.98 c0 -0.36 0.02 -0.84 0.02 -1.24 c0 -0.86 0 -1.66 -0.06 -2.28 c0 -0.42 0.06 -1.48 0.06 -3.5 c0 -0.08 -0.02 -0.24 -0.02 -0.32 c0 -0.18 0.02 -0.2 0.02 -0.44 c0 -0.18 -0.04 -0.38 -0.04 -0.56 c0 -0.14 0.02 -0.24 0.04 -0.32 c0 -0.02 -0.02 -0.12 -0.02 -0.22 s0 -0.14 0.02 -0.22 l0 -2.22 l-0.12 -0.08 l-1.06 0 c-0.06 0.04 -0.18 0.04 -0.3 0.04 c-0.08 0 -0.22 0.02 -0.22 -0.02 c0 -0.02 -0.32 0.06 -0.32 -0.36 c0.12 -0.32 0.08 -0.28 0.32 -0.4 c2.46 0 2.24 0.04 2.9 0.04 c0.24 0 1.92 -0.04 2.38 -0.04 l0.12 0.04 l1.22 0 c0.18 0.06 0.18 0.18 0.24 0.32 c0 0.18 0.02 0.32 -0.24 0.38 c-0.24 0 -0.74 -0.04 -1.24 -0.04 c-0.78 0 -0.58 0.16 -0.72 0.44 l0 5.5 c0 0.06 -0.04 0.42 -0.04 0.48 c0 0.04 0.04 0.1 0.04 0.14 l0 1.16 c0 0.02 0.04 0.16 0.04 0.2 l-0.04 0.08 l0 3.38 c0 0.06 0.04 0.14 0.04 0.16 s-0.02 0.06 -0.04 0.14 l0 1.34 l-0.04 0.1 c0 0.56 0.06 0.62 0.32 0.72 c0.32 0 0.92 0.04 1.5 0.04 c0.74 0 1.44 -0.06 1.6 -0.28 c-0.04 0 0.44 -0.02 0.58 -0.22 c0.08 0.02 0.26 -0.36 0.56 -0.36 c0.52 -0.62 -0.1 0.1 0.78 -0.78 c-0.02 0 -0.04 0 -0.04 -0.02 c0 -0.06 0.42 -0.3 0.42 -0.52 c-0.04 0 0.56 -1 0.56 -1.18 c0 -0.62 0.36 -0.96 0.52 -1.04 c0.36 0.02 0.58 -0.28 0.58 0.78 c0 0.76 -0.1 1.76 -0.18 1.74 c0 0.04 0.02 0.1 0.06 0.16 c0 0.02 -0.08 0.54 -0.08 1.76 c0 0.48 -0.16 0.32 -0.3 0.62 c-1.12 0 -1.12 -0.06 -1.62 -0.06 c-0.24 0 -0.6 0.06 -0.7 0.06 l-1.34 -0.04 c-0.28 0 -0.62 -0.02 -0.78 -0.02 c0.02 0 -0.36 0.04 -0.58 0.04 c-0.1 0 -0.16 -0.02 -0.2 -0.08 c-0.02 0 -0.38 0.08 -0.42 0.1 c0 0 -0.02 -0.04 -0.2 -0.04 c-0.1 0 -0.38 0.04 -0.64 0.04 c-0.14 0 -0.16 -0.04 -0.28 -0.04 c-0.04 0 -0.78 0.08 -1.04 0.08 c-0.06 0 -0.36 -0.04 -0.42 -0.04 z M25.497999999999998 19.72 c-0.04 0 -0.04 0.24 -0.04 0.28 l0.04 0 l0 -0.28 z M26.157999999999998 19.72 c0 0.04 0.08 0.2 0.16 0.28 c0.04 -0.04 0.08 -0.22 0.1 -0.2 c0 -0.02 -0.12 -0.08 -0.22 -0.08 l-0.04 0 z M26.078 19.92 c-0.02 0 -0.02 0.02 -0.02 0.04 s0 0.04 0.02 0.04 s0.02 -0.02 0.02 -0.04 s0 -0.04 -0.02 -0.04 z M31.698 19.86 l0 0.04 l0.04 -0.04 l-0.04 0 z M32.117999999999995 19.8 c0 0.06 0.02 0.06 0.04 0.1 c0.1 0 0.08 -0.06 0.12 -0.14 c-0.06 0 -0.12 0 -0.16 0.04 z M32.358 19.8 l0 0.1 c0.08 0 0.08 -0.04 0.08 -0.1 l-0.08 0 z M32.658 19.8 l0 0.06 l0.04 0 l0 -0.06 l-0.04 0 z M31.177999999999997 19.8 l0 0.04 l0.04 0.02 z M25.298 19.72 c-0.04 0.02 -0.06 0.02 -0.06 0.02 c0 0.04 0.08 0 0.08 0.1 z M27.137999999999998 19.72 c-0.04 0.02 -0.1 0.02 -0.12 0.04 c0.08 0 0.12 -0.02 0.12 -0.04 z M34.038 19.68 c0 -0.02 0 -0.02 -0.02 -0.02 l0 0.06 c0.02 0 0.02 -0.02 0.02 -0.04 z M33.498 19.56 c-0.06 0 -0.04 0.04 -0.08 0.08 c0.08 0 0.08 -0.06 0.08 -0.08 z M34.358 19.52 c0.02 0.02 0.02 0.1 0.08 0.12 c0 -0.1 0 -0.12 -0.04 -0.16 z M25.317999999999998 19.52 l0.1 0.04 l0.04 -0.04 l-0.04 -0.04 c-0.08 0 -0.08 0 -0.1 0.04 z M37.138 17.36 c-0.02 0 -0.04 0.02 -0.04 0.02 c0 0.02 0.02 0.02 0.04 0.02 s0.02 0 0.02 -0.02 c0 0 0 -0.02 -0.02 -0.02 z M29.497999999999998 16.32 l0 0.1 l0.14 0 c0 -0.04 -0.06 -0.1 -0.1 -0.1 l-0.04 0 z M37.138 16.34 c-0.02 0 -0.04 0.02 -0.04 0.04 s0.02 0.04 0.04 0.04 s0.02 -0.02 0.02 -0.04 s0 -0.04 -0.02 -0.04 z M37.198 15.32 c0 0.1 0 0.2 0.02 0.28 l0.08 0 l0 -0.28 l-0.1 0 z M36.878 15.26 c0 0.02 0.02 0.08 0.04 0.1 c0.04 0 0.1 -0.02 0.1 -0.04 c0 -0.06 -0.02 -0.08 -0.08 -0.08 c-0.02 0 -0.04 0 -0.06 0.02 z M27.258 9.14 l0 0.04 l0.04 0 l0 -0.04 l-0.04 0 z M27.258 7.119999999999999 c0 -0.02 -0.02 -0.02 -0.02 -0.02 c-0.02 0 -0.02 0 -0.02 0.02 s0 0.02 0.02 0.02 c0 0 0.02 0 0.02 -0.02 z M25.857999999999997 5.4 l0 0.04 l0.08 0 c-0.06 -0.04 -0.08 -0.02 -0.08 -0.04 z M25.337999999999997 5.16 c-0.02 0 -0.02 0.16 -0.02 0.2 l0.02 -0.08 l0.14 0 c0 -0.08 -0.08 -0.12 -0.14 -0.12 z M25.738 5.18 c0.04 0.08 0.04 0.1 0.1 0.1 c0 -0.1 -0.06 -0.1 -0.1 -0.1 z M28.758 5.18 l0 0.04 l0.14 0 l0 -0.04 l-0.14 0 z M30.758 5.18 c0.02 0.04 0.06 0.06 0.08 0.06 s0.04 -0.02 0.06 -0.02 z M31.698 5.119999999999999 c0 0.08 0.4 0.1 0.42 0.1 c-0.06 -0.14 -0.16 -0.08 -0.26 -0.14 c-0.04 0 -0.12 0.04 -0.16 0.04 z M26.578 5.16 c0 0.04 0.02 0.02 0.12 0.02 l0 -0.06 s-0.08 0.02 -0.12 0.04 z M28.278 5.16 c-0.02 0 -0.04 0 -0.04 0.02 s0.02 0.04 0.04 0.04 s0.02 -0.02 0.02 -0.04 s0 -0.02 -0.02 -0.02 z M29.278 5.16 c0 0 -0.02 0 -0.02 0.02 s0.02 0.04 0.02 0.04 s0.02 -0.02 0.02 -0.04 s-0.02 -0.02 -0.02 -0.02 z M31.058 5.18 c0 -0.02 -0.02 -0.02 -0.04 -0.02 s-0.04 0 -0.04 0.02 s0.02 0.04 0.04 0.04 s0.04 -0.02 0.04 -0.04 z M41.336999999999996 20.08 c-0.22 0 -0.22 0.02 -0.36 0.02 c-0.04 0 -0.22 -0.16 -0.28 -0.22 c0 0 0.04 -0.3 0.04 -0.36 c0.72 -0.06 1.24 -0.08 1.8 -0.14 c0.06 0 0 -0.38 0.22 -0.38 l0 -0.32 c0.02 0.02 0.04 0.02 0.04 0.02 c0.12 0 0.1 -0.56 0.26 -0.6 c0 -0.04 0.08 -0.72 0.28 -0.88 l0.1 -0.38 s0.68 -2.32 0.94 -2.32 c0.02 0 0.06 0.02 0.08 0.02 c0.1 0 0.12 -0.04 0.12 -0.08 c0 -0.18 -0.16 -0.1 -0.16 -0.24 c0 -0.36 0.36 -1.04 0.4 -1.08 c0.02 -0.82 0.32 -0.62 0.32 -1.14 l0 0.02 c0.02 0 0.18 -0.5 0.26 -0.56 c0 0.04 0.02 0.04 0.02 0.04 s-0.02 0 -0.02 -0.02 c0 -0.12 0.4 -0.94 0.4 -1.16 c0.1 0 0.12 -0.02 0.12 -0.06 s-0.02 -0.08 -0.02 -0.14 c0 -0.12 0.04 -0.24 0.18 -0.4 l0 0.02 c0.04 0 0.02 -0.44 0.18 -0.44 l0.08 -0.38 l0.12 -0.1 l0 -0.32 l0.16 -0.12 l0 -0.34 s0.12 -0.04 0.12 -0.08 c-0.02 0 -0.04 -0.04 -0.04 -0.06 c0 -0.26 0.5 -1.02 0.5 -1.54 l0.1 -0.08 l0 -0.32 c0 0.02 0.02 0.02 0.02 0.02 c0.28 0 -0.1 -1.16 0.94 -1.16 c0.08 0 0.44 0.22 0.44 0.52 c0.08 0.08 -0.08 0.28 0.28 0.94 c0.02 0 0.5 1.3 0.5 1.64 c0.18 0 0.06 0.4 0.52 1.36 c0.12 0.54 0.34 0.52 0.34 0.76 l0 -0.02 s0.1 0.64 0.18 0.64 l-0.02 0 c0 0.08 0.48 0.6 0.48 1.22 c0.12 0.58 0.32 0.34 0.32 0.84 l-0.02 -0.02 c0 0.04 0.32 0.46 0.32 0.72 c-0.02 0 -0.04 0 -0.04 0.02 c0 0.08 0.22 0.36 0.22 0.46 c0 0.02 -0.02 0.02 -0.02 0.04 c0 0.04 0.2 0.2 0.2 0.56 c0.08 0.7 0.42 0.74 0.42 1.18 c-0.02 0.04 -0.04 0.06 -0.04 0.08 c0 0.1 0.32 0.1 0.32 0.56 c0 1.14 0.78 1.4 0.78 2.2 c0.08 0.64 0.46 0.86 0.52 0.9 l1.3 0 c0.08 0 0.2 0.06 0.26 0.1 l0 0.36 c-0.08 0.04 -0.14 0.12 -0.46 0.12 c-0.04 0 -1 -0.04 -1.4 -0.04 c-0.18 0 -0.34 0.04 -0.5 0.04 c-0.02 0 -0.34 -0.04 -0.38 -0.04 c-1.08 0 -1.76 0.06 -2.18 0.06 c-0.02 0 -0.02 -0.06 -0.34 -0.06 c-0.16 0 -0.2 0 -0.28 0.04 c-0.1 0 -0.18 -0.04 -0.22 -0.1 c-0.04 0 -0.12 0.02 -0.12 0.02 l0.04 0.04 l-0.04 0.04 c-0.66 0 -0.72 0 -0.86 -0.12 l0.04 -0.34 c0 -0.04 0.14 -0.12 0.22 -0.12 l1.5 0 c0.02 0.02 0.16 -0.1 0.16 -0.2 c0 -0.04 -0.32 -0.46 -0.32 -0.7 c0.04 -0.02 0.04 -0.02 0.04 -0.06 c0 -0.1 -0.34 -0.36 -0.34 -0.88 c0.02 0 0.02 0 0.02 -0.02 c0 -0.04 -0.22 -0.2 -0.22 -0.36 c0 -0.72 -0.32 -0.72 -0.32 -1.26 l0 0.02 c-0.04 0 -0.22 -0.5 -0.4 -0.5 c-1.34 0 -2.76 0.04 -4.38 0.04 c0 0.08 -0.16 0.12 -0.16 0.34 c-0.3 0.66 -0.34 0.56 -0.34 0.88 c-0.24 0.16 0.02 0.28 -0.26 0.62 c-0.16 1.1 -0.38 0.48 -0.38 1.22 l0 -0.02 c-0.04 0 -0.22 0.52 -0.24 0.52 c0 0.32 0.08 0.32 0.2 0.4 l1.6 0 c0.1 0 0.3 0.02 0.3 0.26 s-0.06 0.36 -0.42 0.36 c-0.06 0 -0.14 -0.04 -0.24 -0.04 c-0.22 0 -0.3 0.04 -0.4 0.04 c-0.04 0 -0.14 -0.04 -0.16 -0.04 l-1.42 0 c-0.04 0.04 -0.08 0.04 -0.12 0.04 c-0.06 0 -0.16 -0.02 -0.24 -0.08 c0 0 0.04 -0.04 0.04 -0.08 l-0.06 0 c-0.04 0 -0.06 0 -0.06 0.04 l0.02 0.04 c-0.02 0.08 -0.04 0.08 -0.16 0.08 c0 -0.26 0 -0.2 0.06 -0.28 c-0.02 -0.08 0.02 -0.18 -0.04 -0.22 c0 0.14 -0.06 0.24 -0.18 0.32 c0 0.04 0.06 0.08 0.1 0.1 c-0.08 0 -0.3 0.1 -0.34 0.16 c-0.36 0 -0.32 -0.08 -0.54 -0.08 z M41.17699999999999 19.92 l0 0.04 l0.1 0 c-0.06 -0.04 -0.08 -0.04 -0.1 -0.04 z M41.516999999999996 19.96 c0 -0.02 -0.02 -0.02 -0.04 -0.02 s-0.04 0 -0.04 0.02 s0.02 0.04 0.04 0.04 s0.04 -0.02 0.04 -0.04 z M41.63699999999999 19.92 c-0.02 0 -0.04 0.02 -0.04 0.04 s0.02 0.04 0.04 0.04 s0.02 -0.02 0.02 -0.04 s0 -0.04 -0.02 -0.04 z M42.07699999999999 19.88 c-0.12 0 -0.28 0.04 -0.32 0.08 c0.34 0 0.24 -0.02 0.32 -0.08 z M42.736999999999995 19.9 c0 0.02 0.16 0.04 0.18 0.06 l0.04 -0.04 c-0.1 -0.02 -0.2 -0.02 -0.22 -0.02 z M44.21699999999999 19.92 c0.26 0 0.66 0.04 0.76 0.04 c-0.22 0 -0.22 -0.22 -0.24 -0.32 c0.02 0 -0.16 0.04 -0.16 0.16 c-0.04 0 -0.02 -0.12 -0.18 -0.12 c0 0.14 -0.08 0.18 -0.18 0.24 z M45.13699999999999 19.92 l0.04 0.04 c0.02 0 0.14 -0.04 0.18 -0.04 l-0.22 0 z M42.376999999999995 19.9 c-0.02 0 -0.04 0.02 -0.04 0.04 c0 0 0.02 0.02 0.04 0.02 s0.02 -0.02 0.02 -0.02 c0 -0.02 0 -0.04 -0.02 -0.04 z M43.956999999999994 19.92 c0 0 -0.04 -0.02 -0.06 -0.02 c-0.04 0 -0.04 0.02 -0.04 0.02 c0 0.02 0 0.04 0.04 0.04 c0.02 0 0.06 -0.02 0.06 -0.04 z M48.876999999999995 19.88 c0.02 0.02 0.08 0.04 0.1 0.04 s0.12 -0.02 0.16 -0.04 l0 -0.24 s-0.04 -0.02 -0.06 -0.02 c-0.18 0 -0.2 0.04 -0.2 0.12 l0 0.14 z M54.297 19.9 c0.06 0 0.08 0.02 0.18 0.02 c0.02 0 0.12 -0.02 0.18 -0.02 l-0.36 0 z M55.25699999999999 19.9 l0 0.02 l0.02 -0.02 l-0.02 0 z M49.437 19.88 l-0.04 0.02 l0.06 0.02 z M50.937 19.88 c-0.02 0 -0.04 0.02 -0.04 0.02 s0.02 0.02 0.04 0.02 s0.02 -0.02 0.02 -0.02 s0 -0.02 -0.02 -0.02 z M53.67699999999999 19.88 c0.02 0.02 0.04 0.02 0.1 0.02 l0.38 0 c-0.02 -0.02 -0.06 -0.04 -0.1 -0.06 c-0.04 0.04 -0.1 0.04 -0.12 0.04 c-0.18 0 -0.14 -0.14 -0.18 -0.14 z M40.85699999999999 19.74 c0 0.12 0 0.1 0.04 0.14 l0.26 0 l0 -0.34 c-0.28 0.14 -0.3 0.08 -0.3 0.2 z M45.077 19.78 l0 0.1 c0.04 0 0.06 -0.04 0.06 -0.04 c-0.02 -0.12 -0.08 -0.12 -0.08 -0.22 c-0.08 0 -0.12 0.04 -0.12 0.06 c0.02 0.04 0.04 0.1 0.14 0.1 z M54.85699999999999 19.84 c-0.02 0 -0.02 0.02 -0.02 0.04 s0 0.02 0.02 0.02 s0.02 0 0.02 -0.02 s0 -0.04 -0.02 -0.04 z M41.39699999999999 19.62 c0 0.16 -0.02 0.2 -0.06 0.22 c0.12 0 0.22 0 0.22 -0.12 s-0.02 -0.1 -0.16 -0.1 z M43.516999999999996 19.8 l0 0.04 l0.04 0 z M43.876999999999995 19.72 l0.04 0.02 l0 -0.06 z M45.17699999999999 19.58 c0 0.02 0 0.06 0.02 0.06 c0 0 0.08 0 0.08 -0.06 c0 -0.04 -0.04 -0.04 -0.08 -0.06 c-0.02 0.02 -0.02 0.04 -0.02 0.06 z M54.31699999999999 19.62 c0 0.02 0.04 0.02 0.06 0.02 c0 -0.1 0 -0.1 -0.04 -0.12 c0 0 -0.02 0.06 -0.02 0.1 z M55.196999999999996 19.48 c-0.1 0.02 -0.08 0.06 -0.08 0.16 l0.16 -0.1 c0 -0.02 -0.06 -0.04 -0.08 -0.06 z M53.67699999999999 19.54 c-0.02 0 -0.04 0.02 -0.04 0.02 c0 0.02 0.02 0.02 0.04 0.02 s0.02 0 0.02 -0.02 c0 0 0 -0.02 -0.02 -0.02 z M42.696999999999996 19.48 l0 0.06 l0.04 -0.06 l-0.04 0 z M42.75699999999999 19.18 c0 0.02 0.02 0.3 0.2 0.3 c-0.04 -0.02 -0.1 -0.2 -0.1 -0.3 l0.04 -0.12 l-0.04 -0.04 c-0.08 0 -0.1 0.12 -0.1 0.16 z M43.49699999999999 18.24 c-0.06 0.04 -0.14 0.16 -0.14 0.32 c0.02 0.02 0.04 0.02 0.04 0.02 c0.08 0 0.1 -0.12 0.12 -0.18 c0 -0.02 -0.02 -0.18 -0.02 -0.16 z M43.39699999999999 17.72 c0 -0.02 -0.02 -0.02 -0.02 -0.02 c-0.02 0 -0.02 0 -0.02 0.02 s0 0.02 0.02 0.02 c0 0 0.02 0 0.02 -0.02 z M43.956999999999994 16.28 c-0.02 0 -0.04 0.02 -0.04 0.02 s0.02 0.02 0.04 0.02 l0.02 -0.02 z M49.63699999999999 16 c-0.02 0 -0.02 0.02 -0.02 0.04 s0 0.04 0.02 0.04 s0.02 -0.02 0.02 -0.04 s0 -0.04 -0.02 -0.04 z M44.13699999999999 15.84 c-0.02 0 -0.02 0.02 -0.02 0.04 s0 0.04 0.02 0.04 s0.02 -0.02 0.02 -0.04 s0 -0.04 -0.02 -0.04 z M44.13699999999999 15.42 c-0.02 0 -0.02 0.02 -0.02 0.02 c0 0.02 0 0.02 0.02 0.02 s0.02 0 0.02 -0.02 c0 0 0 -0.02 -0.02 -0.02 z M45.056999999999995 14.6 c0.06 0.24 0.08 0.26 0.22 0.34 c0.24 0 0.9 -0.04 2.72 -0.04 c0.16 0 0.24 0.06 0.64 0.06 c0.2 0 0.4 -0.06 0.4 -0.28 c0 -0.1 -0.26 -0.48 -0.26 -0.68 l0.02 0 c0 -0.04 -0.22 -0.22 -0.22 -0.44 c0 -0.74 -0.38 -0.66 -0.38 -1.12 c0.02 0.02 0.02 0.04 0.02 0.04 c-0.02 0 -0.38 -0.66 -0.38 -1.04 c0 -0.26 -0.36 -0.64 -0.36 -1.08 l0.02 0 c0 -0.04 -0.22 -0.24 -0.22 -0.48 c-0.18 -0.42 -0.2 -0.38 -0.36 -0.38 c-0.58 1.38 -0.54 1.4 -0.72 1.74 c0 -0.04 -0.02 0.64 -0.28 0.74 l0 -0.04 c-0.02 0 -0.22 1.14 -0.42 1.32 c0 0.26 -0.44 0.6 -0.44 1.34 z M44.657 14.04 c-0.02 0 -0.04 0.02 -0.04 0.04 s0.02 0.04 0.04 0.04 s0.02 -0.02 0.02 -0.04 s0 -0.04 -0.02 -0.04 z M45.11699999999999 12.719999999999999 c-0.02 0 -0.04 0.02 -0.04 0.04 c0 0 0.02 0.02 0.04 0.02 l0 -0.06 z M45.956999999999994 11.54 l0 0.02 l0.02 0 z M45.876999999999995 11.22 c-0.02 0 -0.04 0.02 -0.04 0.04 l0.04 0 l0.02 0 c0 -0.02 0 -0.04 -0.02 -0.04 z M45.956999999999994 10.7 c-0.02 0 -0.04 0.02 -0.04 0.02 c0 0.02 0.02 0.04 0.04 0.04 c0 0 0.02 -0.02 0.02 -0.04 z M46.49699999999999 9.34 c0 -0.02 -0.02 -0.02 -0.02 -0.02 c-0.02 0 -0.02 0 -0.02 0.02 s0 0.04 0.02 0.04 c0 0 0.02 -0.02 0.02 -0.04 z M46.556999999999995 9.28 l-0.02 0 c0 0.02 0.02 0.02 0.02 0.02 s0.02 0 0.02 -0.02 l-0.02 0 z M48.736999999999995 7.880000000000001 c-0.02 0 -0.02 0.02 -0.02 0.04 s0 0.04 0.02 0.04 s0.02 -0.02 0.02 -0.04 s0 -0.04 -0.02 -0.04 z M48.35699999999999 5.1 c0 0 -0.02 0.02 -0.02 0.04 l0.04 0 c0 -0.02 0 -0.04 -0.02 -0.04 z M47.836999999999996 5.0600000000000005 c-0.02 0 -0.02 0.02 -0.02 0.04 s0 0.04 0.02 0.04 s0.02 -0.02 0.02 -0.04 s0 -0.04 -0.02 -0.04 z M47.99699999999999 5.0600000000000005 l0.08 0.04 c0.16 0 0.1 0 0.16 -0.04 l-0.06 -0.08 c-0.08 0 -0.12 0.08 -0.18 0.08 z M59.535999999999994 19.92 c-0.04 0 -0.06 0.02 -0.08 0.02 l0.08 0.08 c-0.02 0 -0.08 0.06 -0.22 0.06 c-0.16 0 -0.28 -0.22 -0.28 -0.32 c0 -0.2 0.06 -0.26 0.9 -0.26 c0.38 0 1.04 -0.02 1.12 -0.16 c0 0 0.08 -0.6 0.12 -0.66 c0 0 -0.04 -0.84 -0.04 -0.92 c0 -0.02 0.04 -0.16 0.04 -0.22 c0 -0.04 0 -0.08 -0.04 -0.16 l0 -2.52 l0.04 -0.06 c0 -0.6 -0.08 -1.04 -0.08 -1.58 c0 -0.5 0.04 -0.8 0.04 -1.16 l0 -6.24 c-0.06 -0.06 -0.14 -0.28 -0.2 -0.28 c0.02 0 -0.7 0.08 -1.32 0.08 c-0.16 0 -0.6 0 -0.6 -0.2 l0 -0.32 c-0.02 -0.02 0.14 -0.12 0.44 -0.12 l4.7 0 c0.18 0 0.28 0.02 0.4 0.16 c-0.02 0.02 -0.02 0.04 -0.02 0.06 c0 0.14 0.2 0.26 0.2 0.54 c-0.02 0 -0.02 -0.02 -0.02 -0.02 c-0.02 0 -0.02 0.02 -0.02 0.02 c0 0.12 0.46 0.96 0.46 1.48 c0 0.4 0.26 0.62 0.26 0.94 c-0.02 0.02 -0.02 0.02 -0.02 0.04 c0 0.08 0.26 0.3 0.26 0.76 c-0.02 0.02 -0.02 0.02 -0.02 0.04 c0 0.04 0.16 0.1 0.16 0.46 c0 0.02 -0.02 0.02 -0.02 0.04 c0 0.08 0.18 0.12 0.18 0.54 c0.08 0.88 0.3 0.8 0.3 0.92 c0.02 0.6 0.42 0.76 0.42 1.52 c0 0.28 0.34 0.78 0.34 1.16 c0.22 0.38 -0.06 0.24 0.44 1.2 l0.2 0 c0.08 -0.5 0.46 -1 0.46 -1.38 c0.06 -1.06 0.48 -0.96 0.48 -1.72 l0 -0.02 c0 -0.1 0.3 -0.62 0.3 -0.98 c0 -0.52 0.22 -0.6 0.22 -0.84 l-0.04 0 c0 -0.02 0.2 -0.1 0.2 -0.44 c0.08 -1.58 0.62 -1.2 0.62 -2.08 c0.2 -1.98 0.64 -1.22 0.64 -2.24 c-0.02 0 -0.02 0 -0.02 -0.02 c0 -0.04 0.32 -0.18 0.76 -0.18 c0.1 0 0.9 0.04 1 0.04 c0.12 0 1.76 -0.04 2.82 -0.04 c0.38 0 0.78 0.16 0.76 0.16 l0 0.28 l-0.04 0.04 c-0.04 0 -0.16 0.12 -0.2 0.12 l-0.04 0.04 c-0.54 0 -0.96 -0.08 -1.24 -0.08 c-0.12 0 -0.3 -0.02 -0.42 0.32 l0 7.14 c0 0.04 0.04 0.26 0.04 0.32 c0 0.04 -0.04 0.36 -0.04 0.38 s-0.02 0.02 -0.02 0.04 s0.02 0.06 0.06 0.12 c0 3.62 -0.08 2.68 -0.08 4.44 c0 0.6 0.1 1.2 0.58 1.2 c0.1 0 0.22 -0.06 0.3 -0.06 l0.48 0 l0.02 0.02 c0.2 0 0.08 -0.02 0.34 -0.02 c0.24 0 0.3 0.28 0.3 0.32 c0 0.1 -0.04 0.22 -0.18 0.22 c-0.16 0 -0.18 0.04 -0.18 0.04 c-0.08 0 -0.52 -0.04 -0.58 -0.04 c-0.96 0 -1.36 0.06 -2 0.06 c-0.18 0 -0.44 -0.06 -0.68 -0.06 c-0.5 0 -0.54 0.04 -0.74 0.04 c-0.4 0 -1.02 -0.06 -1.06 -0.06 c0 0.06 -0.76 0.06 -0.84 0.06 c-0.32 0 -0.32 -0.02 -0.42 -0.06 l0.06 -0.04 c0 -0.04 -0.04 -0.12 -0.06 -0.18 c-0.04 0.02 -0.04 0.06 -0.04 0.1 l0 0.08 c-0.08 0 -0.12 0 -0.12 -0.02 l0 -0.28 c0.16 -0.06 0.3 -0.16 0.36 -0.18 l0.76 0 c0.04 0.02 0 0.02 0.14 0.02 c0.02 0 0.04 0 0.04 -0.04 l0.4 0 c0 0.02 0.02 0.02 0.04 0.02 c0.1 0 0.26 -0.5 0.26 -1.7 c0 -1.56 -0.04 -1.98 -0.04 -2.8 c0 -0.02 0 -0.04 0.04 -0.1 c0 0.06 -0.1 -3.48 -0.1 -4.6 c-0.02 0.02 -0.02 0.04 -0.02 0.04 l0 0 s0.1 -0.88 0.1 -2.2 c0 -0.6 -0.04 -1.12 -0.24 -1.12 c0 -0.02 0.02 -0.02 0.02 -0.02 c-0.3 0 -0.28 1.04 -0.64 1.7 c0.02 0 0.02 0.02 0.02 0.04 c0 0.1 -0.22 0.38 -0.22 0.6 c0 0.02 0.02 0.04 0.02 0.06 c-0.06 -0.02 -0.04 0.36 -0.2 0.52 c0 1.04 -0.54 1.14 -0.54 1.92 c-0.14 0.6 -0.3 0.46 -0.3 1.02 c-0.04 0.42 -0.52 1.18 -0.52 1.48 c0 0.64 -0.24 0.3 -0.24 0.94 l0.02 0 c0 0.06 -0.28 0.46 -0.28 0.88 c0 1 -0.68 1.36 -0.68 2.14 c0 0.52 -0.32 0.82 -0.32 1.1 c0 0.04 -0.04 0.76 -0.5 0.76 c-0.42 0 -0.74 -0.92 -0.74 -1.4 c-0.16 -0.7 -0.22 -0.88 -0.54 -1.82 c-0.14 -0.68 -0.42 -0.9 -0.42 -1.26 c0 -0.28 -0.3 -0.64 -0.3 -0.9 c-0.04 -0.56 -0.06 0.04 -0.56 -1.94 c0 0 -0.12 -0.58 -0.2 -0.64 l0 -0.14 s0 -0.04 0.02 -0.06 c0.02 0.02 0.08 0.04 0.1 0.04 s0.02 0 0.02 -0.02 s-0.02 -0.06 -0.04 -0.08 c-0.04 0 -0.08 0 -0.12 0.02 c-0.06 -0.04 -0.28 -0.48 -0.28 -0.76 c-0.04 -0.74 -0.46 -1.44 -0.66 -2.14 l0 0.02 c-0.04 0 -0.46 -2.22 -0.72 -2.22 c-0.2 0 -0.16 0.02 -0.18 0.08 l0 1.72 c0 0.04 0.02 0.16 0.02 0.2 c0 0.16 -0.08 0.14 -0.08 0.22 c0 0.06 0.06 0.2 0.06 0.6 l-0.02 0.02 s0.02 0 0.02 0.04 c0 0.02 0 0.06 -0.04 0.14 c0 -0.02 0.04 0.74 0.04 0.82 c0 0.18 -0.04 0.68 -0.04 1.36 c0 0.36 0.04 1.6 0.04 1.68 c0 0.02 -0.02 0.06 -0.04 0.1 c0.04 0.12 0.04 0.18 0.04 0.36 c0 0.14 0 0.3 -0.04 0.3 c0 0.04 0.02 0.08 0.04 0.12 c0 0.62 -0.06 1 -0.06 1.22 c0 0.24 0.06 0.9 0.06 0.9 c0 0.48 -0.06 0.9 -0.06 1.64 c0 0.6 0.08 1.22 0.56 1.22 c0.62 0 1.02 -0.06 1.02 -0.1 c0.4 0 0.54 0.18 0.54 0.38 c0 0.06 -0.08 0.26 -0.38 0.26 c-0.2 0 -0.18 -0.04 -0.28 -0.12 c-0.06 0 -0.12 0.06 -0.18 0.06 s-0.06 -0.06 -0.1 -0.1 c-0.14 0.1 -0.1 0.16 -0.22 0.16 l0 -0.1 c-0.12 0 0 0.08 -0.44 0.08 c-0.02 0 -0.08 -0.02 -0.12 -0.04 c-0.02 0 -0.6 0.06 -1.02 0.06 l-0.1 -0.02 c0.12 -0.06 0.28 -0.06 0.32 -0.1 c-0.24 0 -0.4 0.02 -0.64 0.02 c0.02 0.04 0.16 0.08 0.26 0.08 l-0.1 0 c-0.1 0 -0.22 0.02 -0.28 0.1 l-0.08 -0.04 l-0.36 0 l-0.02 0.04 l-0.28 0 c-0.08 -0.06 -0.22 -0.08 -0.28 -0.1 c0 -0.1 -0.04 -0.1 -0.04 -0.1 z M59.696 19.98 c-0.02 0 -0.04 0.02 -0.04 0.02 c0 0.02 0.02 0.02 0.04 0.02 c0 0 0.02 0 0.02 -0.02 z M63.376 19.94 l0.04 0.04 l0.08 -0.04 l-0.12 0 z M60.455999999999996 19.92 l0 0.02 l0.02 -0.02 l-0.02 0 z M61.97599999999999 19.94 l0.02 0 l-0.02 0 z M62.096 19.88 c-0.02 0 -0.02 0.02 -0.02 0.04 s0 0.02 0.02 0.02 s0.02 0 0.02 -0.02 s0 -0.04 -0.02 -0.04 z M59.455999999999996 19.58 c-0.26 0 -0.28 0.1 -0.28 0.2 l0 0.1 c0.14 -0.06 0.1 -0.2 0.2 -0.22 l0.24 0 l0 -0.04 c-0.02 0 -0.14 -0.04 -0.16 -0.04 z M59.97599999999999 19.78 l-0.04 0.04 l0.04 0 l0 -0.04 z M75.496 19.58 l0.22 0.24 c0.02 -0.1 0.02 -0.16 0.04 -0.16 l0 0.1 l-0.04 0.06 c0 -0.2 -0.26 -0.18 -0.26 -0.2 s0 -0.02 0.04 -0.04 z M63.65599999999999 19.58 c-0.1 0.02 -0.12 0.04 -0.12 0.12 l0.16 -0.04 c0 -0.04 -0.02 -0.08 -0.04 -0.08 z M66.476 19.54 c0.02 0.04 0.1 0.1 0.16 0.16 c0.04 -0.02 0.06 -0.12 0.08 -0.12 c0 -0.04 -0.06 -0.04 -0.14 -0.04 l-0.1 0 z M74.976 19.62 l0.06 0.08 l0.06 -0.08 l-0.12 0 z M66.73599999999999 19.42 c-0.02 0 -0.02 0.02 -0.02 0.04 s0 0.04 0.02 0.04 s0.02 -0.02 0.02 -0.04 s0 -0.04 -0.02 -0.04 z M61.336 16.759999999999998 l0 0.04 l0.02 0 z M63.836 12.16 l0 0.04 l0.04 0 l0 -0.04 l-0.04 0 z M63.815999999999995 12 c-0.02 0 -0.04 0.02 -0.04 0.02 c0 0.02 0.02 0.04 0.04 0.04 c0 0 0.02 -0.02 0.02 -0.04 z M61.65599999999999 9.78 c-0.02 0 -0.04 0.02 -0.04 0.04 c0 0 0.02 0.02 0.04 0.02 l0.02 -0.02 c0 -0.02 -0.02 -0.04 -0.02 -0.04 z M73.45599999999999 8.16 c0 0.06 0 0.08 0.08 0.08 c-0.04 -0.04 -0.06 -0.08 -0.08 -0.08 l0 0 z M73.756 8.16 c-0.04 0.02 -0.06 0.04 -0.06 0.06 s0 0.02 0.02 0.02 s0.02 -0.04 0.04 -0.08 z M70.276 6.92 c-0.02 0 -0.04 0 -0.04 0.02 l0.04 0 l0.02 0 c0 -0.02 0 -0.02 -0.02 -0.02 z M70.636 5.66 c0.02 0.04 0.04 0.06 0.06 0.08 c0.02 0 0.06 0.02 0.06 -0.08 c0 -0.06 0 -0.12 -0.04 -0.12 c-0.06 0 -0.06 0.12 -0.08 0.12 z M59.455999999999996 5.42 c0 0.08 0.04 0.1 0.1 0.12 l0.02 -0.04 c-0.02 -0.04 -0.06 -0.06 -0.12 -0.08 z M59.236 5.380000000000001 c-0.02 0 -0.04 0.02 -0.04 0.02 c0 0.02 0.02 0.02 0.04 0.02 c0 0 0.02 0 0.02 -0.02 z M75.036 5.34 l0 0.02 l0.04 0 z M59.196 5.26 l0.04 0.08 s0.12 -0.16 0.14 -0.24 c-0.1 0 -0.18 0.02 -0.18 0.16 z M59.455999999999996 5.199999999999999 c-0.02 0 -0.04 0.02 -0.04 0.04 c0 0 0.02 0.02 0.04 0.02 s0.02 -0.02 0.02 -0.02 c0 -0.02 0 -0.04 -0.02 -0.04 z M60.236 5.199999999999999 l0 0.04 l0.04 -0.04 l-0.04 0 z M74.01599999999999 5.199999999999999 c-0.02 0 -0.04 0.02 -0.04 0.04 c0 0 0.02 0.02 0.04 0.02 l0.02 -0.02 c0 -0.02 -0.02 -0.04 -0.02 -0.04 z M75.076 5.199999999999999 c-0.02 0 -0.04 0.02 -0.04 0.04 c0 0 0.02 0.02 0.04 0.02 l0.02 -0.02 c0 -0.02 -0.02 -0.04 -0.02 -0.04 z M71.336 5.140000000000001 l0.04 0.06 c0.06 0 0.06 -0.02 0.06 -0.04 c0 0 0 -0.02 -0.02 -0.06 c-0.06 0 -0.06 0.02 -0.08 0.04 z M71.79599999999999 5.1 l0 0.1 l0.06 0 l0 -0.1 l-0.06 0 z M73.976 5.199999999999999 c0 -0.02 -0.02 -0.02 -0.02 -0.02 l0 0.06 s0.02 -0.02 0.02 -0.04 z M74.076 5.140000000000001 l-0.04 0.04 l0.04 0 l0 -0.04 z M74.316 5.140000000000001 c-0.02 0 -0.04 0.02 -0.04 0.04 c0 0 0.02 0.02 0.04 0.02 l0 -0.06 z M75.416 5.1 l0 0.08 l0.04 0 l0 -0.08 l-0.04 0 z M75.17599999999999 5.1 l-0.02 -0.02 c-0.02 0 -0.02 0.02 -0.02 0.02 c0 0.02 0 0.04 0.02 0.04 c0 0 0.02 -0.02 0.02 -0.04 z"></path></g><g id="SvgjsG1176" featurekey="inlineSymbolFeature-0" transform="matrix(1.1069935576731327,0,0,1.1069935576731327,137.55148100854714,-22.246728142293755)" fill="#111111"><g xmlns="http://www.w3.org/2000/svg"><g><g><g><path d="M26.873,20.334c-4.741-0.014-9.381-1.263-13.263,2.11c-1.87,1.624-2.299,4.311-2.578,6.603      c-0.631,5.161,3.508,11.083-3.364,13.324C6.874,42.63,6.32,43.844,7.116,44.46c1.217,0.941,2.534,1.58,3.881,2.321      c1.541,0.85,1.672,7.571,1.83,8.996c0.518,4.645-2.014,10.145-0.706,14.59c1.439,4.895,10.028,7.739,14.291,4.704      c1.302-0.927,0.055-3.096-1.262-2.158c-3.014,2.146-10.304-0.182-10.696-4.099c-0.361-3.601,1.004-7.689,0.977-11.355      c-0.021-2.898-0.081-7.211-0.959-9.933c-0.908-2.812-3.42-3.157-5.588-4.834c-0.184,0.696-0.367,1.393-0.552,2.089      c3.796-1.237,5.835-2.769,5.909-6.976c0.086-4.918-3.096-12.596,3.484-14.983c2.703-0.981,6.338,0.004,9.147,0.012      C28.485,22.839,28.485,20.339,26.873,20.334L26.873,20.334z"></path></g></g><g><g><path d="M69.127,22.834c2.42-0.007,4.821-0.306,7.241-0.291c7.298,0.046,6.105,8.637,5.521,13.517      c-0.596,4.986,1.211,7.233,5.778,8.722c-0.185-0.696-0.368-1.393-0.552-2.089c-1.566,1.212-4.622,1.843-5.313,3.983      c-0.911,2.822-0.803,6.146-1.131,9.102c-0.444,3.987,0.4,7.833,0.836,11.765c0.506,4.552-7.022,7.96-10.659,5.371      c-1.316-0.938-2.563,1.231-1.262,2.158c4.263,3.035,12.852,0.19,14.291-4.704c0.403-1.37,0.155-3.07-0.058-4.448      c-0.528-3.418-0.861-6.683-0.648-10.142c0.141-2.297,0.593-4.489,0.687-6.79c0.101-2.493,3.391-3.264,5.024-4.527      c0.797-0.616,0.242-1.83-0.552-2.089c-5.858-1.91-3.765-6.868-3.369-11.584c0.202-2.408-0.23-5.367-1.771-7.325      c-3.622-4.6-8.899-3.143-14.064-3.128C67.515,20.339,67.515,22.839,69.127,22.834L69.127,22.834z"></path></g></g></g><g><g><g><path d="M35.27,51.389c-5.728-2.952-9.439,7.214-3.4,8.823c4.333,1.155,7.525-7.248,3.4-9.136      c-1.455-0.666-2.726,1.488-1.262,2.158c1.634,0.748,0.089,4.142-1.229,4.547c-1.23,0.378-1.668-1.66-1.501-2.457      c0.259-1.241,1.433-2.445,2.729-1.777C35.438,54.284,36.703,52.127,35.27,51.389L35.27,51.389z"></path></g></g><g><g><path d="M46.629,50.639c-2.154,0.781-3.212,2.804-2.837,5.044c0.332,1.985,1.799,3.742,3.916,3.764      c2.555,0.026,4.729-2.692,4.443-5.131c-0.309-2.632-2.759-4.478-5.347-4.346c-1.604,0.081-1.612,2.582,0,2.5      c1.323-0.067,2.462,0.608,2.838,1.917c0.354,1.228-0.944,2.57-2.141,2.558c-0.77-0.008-1.136-1.135-1.263-1.711      c-0.195-0.884,0.177-1.866,1.054-2.185C48.796,52.504,48.147,50.087,46.629,50.639L46.629,50.639z"></path></g></g><g><g><path d="M59.451,51.213c-1.226,1.781-1.3,4.066-0.054,5.859c1.094,1.571,3.086,2.631,5.005,2.063      c2.415-0.715,3.265-3.849,2.676-6.033c-0.812-3.01-4.29-4.313-6.866-2.65c-1.35,0.87-0.098,3.035,1.262,2.158      c3.29-2.123,4.363,3.976,1.991,4.185c-0.834,0.073-1.651-0.564-2.107-1.284c-0.644-1.016-0.393-2.099,0.252-3.036      C62.526,51.143,60.358,49.895,59.451,51.213L59.451,51.213z"></path></g></g></g></g></g><g id="SvgjsG1177" featurekey="nameRightFeature-0" transform="matrix(1.6538034210387034,0,0,1.6538034210387034,236.12293817140304,10.127901646089597)" fill="#111111"><path d="M12.099 19.72 l0 -0.1 l0.24 -0.24 l0.98 0 l0.08 0.04 l0.46 0.04 c0.08 0.04 0.18 -0.26 0.24 -0.26 l0 -2.42 c0 -0.02 -0.04 -0.26 -0.04 -0.28 c0 0 0.04 -0.48 0.04 -0.58 c0.04 -0.06 -0.06 0.08 -0.06 -0.32 c0 -0.04 0.06 -0.08 0.06 -0.16 c0 -0.14 -0.04 -0.22 -0.04 -0.32 c0 -0.04 0.04 -0.18 0.04 -0.26 l0 -1.26 c0 -0.18 -0.06 -0.5 -0.06 -0.74 l0.02 -1.72 c-0.02 -0.08 -0.02 -0.6 -0.02 -0.7 c0 -0.06 0.02 -0.52 0.02 -0.58 c0 -0.02 -0.02 -1.04 -0.02 -1.16 c0 -1.24 0.02 -1.46 0.02 -2 c0 -0.24 0 -0.76 -0.02 -0.92 l-0.12 -0.14 s-0.4 -0.02 -0.56 -0.02 c-0.26 0 -0.46 0.06 -0.7 0.06 c-0.22 -0.04 -0.44 0.12 -0.64 -0.34 c0 -0.18 0.04 -0.4 0.22 -0.44 c4.08 0 4.5 0.04 6.12 0.04 c3.88 0 3.66 -0.04 5.28 -0.04 c0.2 0 0.42 3.66 0.42 3.84 c0 0.02 0.02 0.02 0.02 0.04 c0 0.24 -0.36 0.42 -0.48 0.42 c-0.26 0 -0.4 -0.28 -0.48 -0.6 c0.08 0 -0.86 -1.54 -0.82 -1.46 c-0.26 -0.26 -0.28 -0.3 -0.44 -0.5 c0 -0.18 -0.86 -0.58 -0.96 -0.72 c0 0.02 -0.02 0.02 -0.02 0.02 c-0.06 0 -0.12 -0.24 -0.54 -0.24 c-0.56 0 -0.52 -0.08 -1.38 -0.08 l0 -0.04 l-0.62 0 l-0.04 0.04 l-0.26 0 l0.14 -0.04 c-0.46 0 -0.66 -0.06 -0.78 -0.06 c-0.18 0 -0.4 0.1 -0.4 0.68 c0 1.12 0.04 1.72 0.04 2 c0 0.3 -0.04 1.18 -0.04 1.3 c0 0.34 0.08 0.62 0.08 0.86 c-0.04 0 -0.08 0.14 -0.08 0.2 s0.08 0.44 0.08 0.62 c0 0.04 -0.04 0.1 -0.04 0.12 c0 0.06 -0.06 0.82 0.14 0.82 c0.46 0 0.8 -0.12 1.16 -0.12 l0 0.02 c0.06 0 0.24 -0.3 0.38 -0.3 c0.24 0 0.28 -0.08 0.54 -0.34 l0 0.02 c-0.02 0 0.34 -0.72 0.54 -0.96 c0.34 -0.16 -0.12 -1 0.88 -1 l0.06 0.04 c0 0.18 0.1 0.24 0.1 0.8 c-0.02 0.16 -0.04 0.68 -0.04 0.64 c0 0.22 0.04 0.56 0.04 0.84 c0 0.24 0 0.24 -0.04 0.36 c0 0.2 0.04 0.46 0.04 0.52 c0 0.26 -0.04 0.26 -0.04 0.46 c0 0.16 0.04 1.24 0.04 1.38 c0 0.08 -0.04 0.16 -0.04 0.28 l0 0.74 c0.02 0.02 -0.16 0.16 -0.26 0.16 c-0.64 0 -0.1 -0.12 -0.82 -1.42 c-0.56 -0.98 -0.74 -0.94 -1.06 -1.22 c0.02 0 -0.58 -0.2 -0.72 -0.2 l-0.06 -0.1 l-0.64 -0.02 c-0.3 0.16 -0.26 1 -0.26 0.68 c0 0.08 0.06 0.28 0.06 0.58 c0 0.14 -0.02 0.38 -0.06 0.6 c0 0.02 0.06 0.2 0.06 0.32 c0 0.2 -0.04 0.18 -0.04 0.26 c0 0.14 0.04 0.22 0.04 0.28 c-0.06 0.78 -0.08 2.18 -0.08 2.42 c0 1.26 -0.02 1.36 0.28 1.66 l0.86 0 c0.08 -0.02 0.18 -0.08 0.26 -0.08 c0.02 0 1.2 0.04 1.36 0.04 s0.02 -0.1 0.44 -0.1 c0.76 -0.3 0.72 -0.04 1.36 -0.54 c-0.02 0 -0.02 -0.02 -0.02 -0.02 c0 -0.06 0.5 -0.28 0.76 -0.6 c-0.02 0 -0.02 -0.02 -0.02 -0.02 c0 -0.3 0.88 -0.52 0.88 -1.24 c0 -0.08 0.36 -0.54 0.36 -0.66 c0.5 -1.26 0.18 -1.2 0.82 -1.2 c0.02 0 0.24 0 0.24 0.26 c0 1.3 -0.2 2.9 -0.2 3.8 c0 0.14 0.02 0.28 0.02 0.42 c0 0.24 -0.08 0.44 -0.56 0.44 l-7.7 0 c-1.16 0 -1.58 0.04 -3.72 0.04 c-0.38 -0.12 -0.28 -0.28 -0.28 -0.32 z M12.299 19.8 l0 -0.02 l0 0.06 c0 0.06 0.02 0.14 0.2 0.14 c0.04 0 0.1 0 0.16 -0.02 l0 -0.04 l-0.16 -0.18 c-0.02 0.04 -0.04 0.08 -0.08 0.1 c-0.02 0 -0.08 -0.02 -0.12 -0.06 l0 0.02 z M19.399 19.88 l0.02 0.04 c0.02 -0.02 0.02 -0.02 0.02 -0.08 z M18.619 19.84 c-0.06 0 -0.08 0 -0.1 0.04 l0.1 0 l0 -0.04 z M12.999 19.62 c0.04 0 0.12 0.04 0.14 0.04 c0.18 0 0.12 0 0.18 -0.04 c-0.04 0 -0.18 -0.04 -0.2 -0.04 c-0.08 0 -0.08 0 -0.12 0.04 z M23.979 19.62 c0.02 0.06 0.08 0.04 0.12 0.04 c-0.02 -0.04 -0.06 -0.04 -0.12 -0.04 z M14.539 19.62 c0 -0.02 -0.02 -0.02 -0.04 -0.02 s-0.04 0 -0.04 0.02 s0.02 0.04 0.04 0.04 s0.04 -0.02 0.04 -0.04 z M12.419 19.56 l0 0.02 l0.2 0 c-0.04 -0.02 -0.16 -0.02 -0.2 -0.02 z M14.259 16.9 l-0.02 -0.02 c-0.02 0 -0.02 0.02 -0.02 0.02 c0 0.02 0 0.04 0.02 0.04 c0 0 0.02 -0.02 0.02 -0.04 z M14.219 16.04 l0 0.08 c0.02 0 0.02 -0.02 0.02 -0.04 s0 -0.04 -0.02 -0.04 z M14.259 15.92 c0.02 0.04 0.06 0.04 0.12 0.04 c0 -0.04 0.02 -0.16 -0.04 -0.2 c0 0.04 -0.08 0.1 -0.08 0.16 z M14.379 15.54 c0 0.02 0 0.04 0.02 0.06 l0.02 -0.06 l-0.04 0 z M24.378999999999998 15.54 c-0.02 0 -0.04 0.02 -0.04 0.04 c0 0 0.02 0.02 0.04 0.02 s0.02 -0.02 0.02 -0.02 c0 -0.02 0 -0.04 -0.02 -0.04 z M24.479 15.5 c-0.02 0 -0.02 0.02 -0.02 0.04 c0 0 0 0.02 0.02 0.02 l0 -0.06 z M14.259 12.48 c-0.02 0 -0.04 0.02 -0.04 0.04 c0 0 0.02 0.02 0.04 0.02 s0.02 -0.02 0.02 -0.02 c0 -0.02 0 -0.04 -0.02 -0.04 z M14.399000000000001 12.48 c0 -0.02 0 -0.02 -0.02 -0.02 l0 0.04 c0.02 0 0.02 0 0.02 -0.02 z M14.259 11.6 l-0.02 -0.02 c-0.02 0 -0.02 0.02 -0.02 0.02 c0 0.02 0 0.04 0.02 0.04 c0 0 0.02 -0.02 0.02 -0.04 z M20.639 9.92 c0 -0.02 -0.02 -0.02 -0.04 -0.02 c0 0 -0.02 0 -0.02 0.02 s0.02 0.04 0.02 0.04 c0.02 0 0.04 -0.02 0.04 -0.04 z M23.479 8.96 c-0.02 0 -0.04 0.02 -0.04 0.04 c0 0 0.02 0.02 0.04 0.02 s0.02 -0.02 0.02 -0.02 c0 -0.02 0 -0.04 -0.02 -0.04 z M16.519 7.960000000000001 c-0.02 0.02 -0.02 0.06 -0.02 0.08 l0.22 0 c-0.02 -0.04 -0.1 -0.08 -0.2 -0.08 z M14.219 7.18 l0 0.08 c0.02 0 0.02 -0.02 0.02 -0.04 s0 -0.04 -0.02 -0.04 z M14.219 6.16 l0 0.08 c0.02 0 0.02 -0.02 0.02 -0.04 s0 -0.04 -0.02 -0.04 z M23.679000000000002 5.42 l0 0.2 l0.02 -0.1 c0 -0.04 0 -0.06 -0.02 -0.1 z M13.519 5.539999999999999 c-0.02 0 -0.02 0.02 -0.02 0.04 s0 0.04 0.02 0.04 s0.02 -0.02 0.02 -0.04 s0 -0.04 -0.02 -0.04 z M15.199 5.58 c0 -0.02 -0.02 -0.02 -0.02 -0.02 c-0.02 0 -0.02 0 -0.02 0.02 s0 0.04 0.02 0.04 c0 0 0.02 -0.02 0.02 -0.04 z M12.959 5.380000000000001 c-0.18 0 -0.08 0.14 -0.14 0.16 c0.12 0 0.14 -0.02 0.14 -0.06 c0 -0.02 -0.02 -0.04 -0.02 -0.06 s0.02 -0.02 0.02 -0.04 z M13.439 5.48 l0.06 0.04 l0.02 -0.04 l-0.04 -0.02 z M12.559 5.42 c-0.02 0 -0.02 0.02 -0.02 0.04 c0 0 0 0.02 0.02 0.02 s0.02 -0.02 0.02 -0.02 c0 -0.02 0 -0.04 -0.02 -0.04 z M12.759 5.34 l-0.14 0.04 l0.14 0 l0 -0.04 z M14.539 5.34 c-0.02 0 -0.04 0.02 -0.04 0.02 c0 0.02 0.02 0.02 0.04 0.02 c0 0 0.02 0 0.02 -0.02 z M16.559 5.34 l0 0.04 l0.02 0 z M12.859 5.34 l-0.04 0 c0 0.02 0 0.04 0.02 0.04 c0 0 0.02 -0.02 0.02 -0.04 z M13.318999999999999 5.32 c-0.04 0 -0.04 0.04 -0.04 0.04 c0.02 0 0.02 -0.02 0.04 -0.04 z M14.179 5.34 l-0.04 0 c0 0.02 0 0.04 0.02 0.04 c0 0 0.02 -0.02 0.02 -0.04 z M17.439 5.32 c-0.04 0 -0.08 0.02 -0.12 0.02 l0.14 0 z M12.259 5.32 c0 0 0 -0.02 -0.02 -0.02 l0 0.04 c0.02 0 0.02 0 0.02 -0.02 z M18.299 5.26 c0 0.08 0.02 0.04 0.04 0.06 c0 0 0.02 0 0.04 -0.02 l-0.04 -0.08 z M23.599 5.0600000000000005 l0 0.24 l0.04 0 c0 -0.06 0.02 -0.24 -0.04 -0.24 z M13.079 5.1 c-0.02 0 -0.04 0.02 -0.04 0.02 c0 0.02 0.02 0.02 0.04 0.02 s0.02 0 0.02 -0.02 c0 0 0 -0.02 -0.02 -0.02 z M12.419 5.1 l-0.02 -0.04 z M12.659 5.02 c-0.04 0.02 -0.06 0.04 -0.06 0.06 l0.02 0.02 l0.04 0 l0 -0.08 z M31.878 20.06 l-2.06 -0.06 l-0.04 0.02 l0.08 -0.12 c-0.02 -0.02 -0.04 -0.04 -0.06 -0.04 c-0.04 0 -0.08 0.14 -0.14 0.2 l-1.18 0 c-0.08 -0.14 -0.2 -0.22 -0.2 -0.32 c0 -0.06 0.04 -0.14 0.04 -0.18 c0.08 -0.12 -0.12 -0.24 1.14 -0.24 c0.12 0 0.26 0.04 0.4 0.04 c0.2 0 0.4 -0.08 0.44 -0.42 c0 -0.68 -0.02 -1.28 -0.02 -1.98 c0 -0.36 0.02 -0.84 0.02 -1.24 c0 -0.86 0 -1.66 -0.06 -2.28 c0 -0.42 0.06 -1.48 0.06 -3.5 c0 -0.08 -0.02 -0.24 -0.02 -0.32 c0 -0.18 0.02 -0.2 0.02 -0.44 c0 -0.18 -0.04 -0.38 -0.04 -0.56 c0 -0.14 0.02 -0.24 0.04 -0.32 c0 -0.02 -0.02 -0.12 -0.02 -0.22 s0 -0.14 0.02 -0.22 l0 -2.22 l-0.12 -0.08 l-1.06 0 c-0.06 0.04 -0.18 0.04 -0.3 0.04 c-0.08 0 -0.22 0.02 -0.22 -0.02 c0 -0.02 -0.32 0.06 -0.32 -0.36 c0.12 -0.32 0.08 -0.28 0.32 -0.4 c2.46 0 2.24 0.04 2.9 0.04 c0.24 0 1.92 -0.04 2.38 -0.04 l0.12 0.04 l1.22 0 c0.18 0.06 0.18 0.18 0.24 0.32 c0 0.18 0.02 0.32 -0.24 0.38 c-0.24 0 -0.74 -0.04 -1.24 -0.04 c-0.78 0 -0.58 0.16 -0.72 0.44 l0 5.5 c0 0.06 -0.04 0.42 -0.04 0.48 c0 0.04 0.04 0.1 0.04 0.14 l0 1.16 c0 0.02 0.04 0.16 0.04 0.2 l-0.04 0.08 l0 3.38 c0 0.06 0.04 0.14 0.04 0.16 s-0.02 0.06 -0.04 0.14 l0 1.34 l-0.04 0.1 c0 0.56 0.06 0.62 0.32 0.72 c0.32 0 0.92 0.04 1.5 0.04 c0.74 0 1.44 -0.06 1.6 -0.28 c-0.04 0 0.44 -0.02 0.58 -0.22 c0.08 0.02 0.26 -0.36 0.56 -0.36 c0.52 -0.62 -0.1 0.1 0.78 -0.78 c-0.02 0 -0.04 0 -0.04 -0.02 c0 -0.06 0.42 -0.3 0.42 -0.52 c-0.04 0 0.56 -1 0.56 -1.18 c0 -0.62 0.36 -0.96 0.52 -1.04 c0.36 0.02 0.58 -0.28 0.58 0.78 c0 0.76 -0.1 1.76 -0.18 1.74 c0 0.04 0.02 0.1 0.06 0.16 c0 0.02 -0.08 0.54 -0.08 1.76 c0 0.48 -0.16 0.32 -0.3 0.62 c-1.12 0 -1.12 -0.06 -1.62 -0.06 c-0.24 0 -0.6 0.06 -0.7 0.06 l-1.34 -0.04 c-0.28 0 -0.62 -0.02 -0.78 -0.02 c0.02 0 -0.36 0.04 -0.58 0.04 c-0.1 0 -0.16 -0.02 -0.2 -0.08 c-0.02 0 -0.38 0.08 -0.42 0.1 c0 0 -0.02 -0.04 -0.2 -0.04 c-0.1 0 -0.38 0.04 -0.64 0.04 c-0.14 0 -0.16 -0.04 -0.28 -0.04 c-0.04 0 -0.78 0.08 -1.04 0.08 c-0.06 0 -0.36 -0.04 -0.42 -0.04 z M28.678 19.72 c-0.04 0 -0.04 0.24 -0.04 0.28 l0.04 0 l0 -0.28 z M29.338 19.72 c0 0.04 0.08 0.2 0.16 0.28 c0.04 -0.04 0.08 -0.22 0.1 -0.2 c0 -0.02 -0.12 -0.08 -0.22 -0.08 l-0.04 0 z M29.258000000000003 19.92 c-0.02 0 -0.02 0.02 -0.02 0.04 s0 0.04 0.02 0.04 s0.02 -0.02 0.02 -0.04 s0 -0.04 -0.02 -0.04 z M34.878 19.86 l0 0.04 l0.04 -0.04 l-0.04 0 z M35.298 19.8 c0 0.06 0.02 0.06 0.04 0.1 c0.1 0 0.08 -0.06 0.12 -0.14 c-0.06 0 -0.12 0 -0.16 0.04 z M35.538000000000004 19.8 l0 0.1 c0.08 0 0.08 -0.04 0.08 -0.1 l-0.08 0 z M35.838 19.8 l0 0.06 l0.04 0 l0 -0.06 l-0.04 0 z M34.358000000000004 19.8 l0 0.04 l0.04 0.02 z M28.478 19.72 c-0.04 0.02 -0.06 0.02 -0.06 0.02 c0 0.04 0.08 0 0.08 0.1 z M30.318 19.72 c-0.04 0.02 -0.1 0.02 -0.12 0.04 c0.08 0 0.12 -0.02 0.12 -0.04 z M37.218 19.68 c0 -0.02 0 -0.02 -0.02 -0.02 l0 0.06 c0.02 0 0.02 -0.02 0.02 -0.04 z M36.678000000000004 19.56 c-0.06 0 -0.04 0.04 -0.08 0.08 c0.08 0 0.08 -0.06 0.08 -0.08 z M37.538000000000004 19.52 c0.02 0.02 0.02 0.1 0.08 0.12 c0 -0.1 0 -0.12 -0.04 -0.16 z M28.498 19.52 l0.1 0.04 l0.04 -0.04 l-0.04 -0.04 c-0.08 0 -0.08 0 -0.1 0.04 z M40.318 17.36 c-0.02 0 -0.04 0.02 -0.04 0.02 c0 0.02 0.02 0.02 0.04 0.02 s0.02 0 0.02 -0.02 c0 0 0 -0.02 -0.02 -0.02 z M32.678000000000004 16.32 l0 0.1 l0.14 0 c0 -0.04 -0.06 -0.1 -0.1 -0.1 l-0.04 0 z M40.318 16.34 c-0.02 0 -0.04 0.02 -0.04 0.04 s0.02 0.04 0.04 0.04 s0.02 -0.02 0.02 -0.04 s0 -0.04 -0.02 -0.04 z M40.378 15.32 c0 0.1 0 0.2 0.02 0.28 l0.08 0 l0 -0.28 l-0.1 0 z M40.058 15.26 c0 0.02 0.02 0.08 0.04 0.1 c0.04 0 0.1 -0.02 0.1 -0.04 c0 -0.06 -0.02 -0.08 -0.08 -0.08 c-0.02 0 -0.04 0 -0.06 0.02 z M30.438000000000002 9.14 l0 0.04 l0.04 0 l0 -0.04 l-0.04 0 z M30.438000000000002 7.119999999999999 c0 -0.02 -0.02 -0.02 -0.02 -0.02 c-0.02 0 -0.02 0 -0.02 0.02 s0 0.02 0.02 0.02 c0 0 0.02 0 0.02 -0.02 z M29.038000000000004 5.4 l0 0.04 l0.08 0 c-0.06 -0.04 -0.08 -0.02 -0.08 -0.04 z M28.518 5.16 c-0.02 0 -0.02 0.16 -0.02 0.2 l0.02 -0.08 l0.14 0 c0 -0.08 -0.08 -0.12 -0.14 -0.12 z M28.918000000000003 5.18 c0.04 0.08 0.04 0.1 0.1 0.1 c0 -0.1 -0.06 -0.1 -0.1 -0.1 z M31.938000000000002 5.18 l0 0.04 l0.14 0 l0 -0.04 l-0.14 0 z M33.938 5.18 c0.02 0.04 0.06 0.06 0.08 0.06 s0.04 -0.02 0.06 -0.02 z M34.878 5.119999999999999 c0 0.08 0.4 0.1 0.42 0.1 c-0.06 -0.14 -0.16 -0.08 -0.26 -0.14 c-0.04 0 -0.12 0.04 -0.16 0.04 z M29.758000000000003 5.16 c0 0.04 0.02 0.02 0.12 0.02 l0 -0.06 s-0.08 0.02 -0.12 0.04 z M31.458000000000002 5.16 c-0.02 0 -0.04 0 -0.04 0.02 s0.02 0.04 0.04 0.04 s0.02 -0.02 0.02 -0.04 s0 -0.02 -0.02 -0.02 z M32.458 5.16 c0 0 -0.02 0 -0.02 0.02 s0.02 0.04 0.02 0.04 s0.02 -0.02 0.02 -0.04 s-0.02 -0.02 -0.02 -0.02 z M34.238 5.18 c0 -0.02 -0.02 -0.02 -0.04 -0.02 s-0.04 0 -0.04 0.02 s0.02 0.04 0.04 0.04 s0.04 -0.02 0.04 -0.04 z M44.077 19.58 c0 0 0.04 -0.06 0.04 -0.08 c0.04 0 0.06 -0.36 0.64 -1.18 c0 -0.2 0.46 -0.48 0.48 -0.8 c0.06 0 0.2 -0.46 0.26 -0.46 c0.1 -0.7 0.5 -0.38 0.74 -1.34 c0.12 0 0.12 -0.26 0.54 -0.84 c0 -0.04 0.3 -0.36 0.36 -0.68 c0 -0.14 0.48 -0.6 0.54 -0.8 c0 -0.2 0.48 -0.54 0.48 -0.8 c0.22 -0.42 0.26 -0.5 0.26 -0.5 l-0.02 0.02 s0.08 -0.12 0.46 -0.78 c-0.02 0 -0.04 -0.02 -0.04 -0.02 c0 -0.08 0.36 -0.22 0.36 -0.5 c0.06 -0.46 0.32 -0.3 0.62 -1.06 l-0.02 0.02 c0 -0.02 0.34 -0.32 0.34 -0.52 c0 -0.02 -0.02 -0.04 -0.02 -0.06 c0 -0.06 0.32 -0.36 0.32 -0.46 c0.18 -0.46 0.16 -0.06 0.6 -1.04 l-0.02 0 c0 -0.04 0.36 -0.22 0.36 -0.44 c-0.02 0 -0.02 -0.02 -0.02 -0.04 c0 -0.18 0.44 -0.6 0.44 -0.7 c0.28 -0.5 0.22 -0.42 0.32 -0.62 c0 0 -0.06 -0.16 -0.1 -0.28 l-0.52 0 c-0.02 -0.04 -0.08 -0.08 -0.08 -0.08 c-0.02 0 -0.1 0.08 -0.28 0.08 c-0.26 0 -0.26 -0.08 -0.38 -0.08 c-0.16 0 -0.08 0 -0.44 0.14 c-0.08 0 -0.24 -0.14 -0.22 -0.14 c-0.06 0 -0.34 0.16 -0.52 0.16 c-0.04 0 -0.06 -0.02 -0.1 -0.06 l-0.52 0 c-0.64 0.18 -0.72 0.24 -1.02 0.28 c-0.02 0 -0.02 -0.02 -0.04 -0.02 c-0.1 0 -0.22 0.42 -0.58 0.42 c-0.86 0.8 -0.98 1.02 -0.96 1.22 l0 -0.02 c-0.04 0 -0.16 0.14 -0.58 0.96 c-0.02 0 -0.14 0.7 -0.52 0.7 c-0.32 0 -0.5 0 -0.5 -0.22 l0.02 -0.52 c0 -0.08 0.1 -1 0.1 -1.58 c0 -0.38 -0.02 -0.68 -0.02 -0.94 c0 -0.52 0.06 -0.78 0.34 -0.9 l1.88 -0.02 c0 -0.02 0.1 -0.12 0.18 -0.12 c-0.02 0 -0.02 0 -0.02 0.02 s0.08 0.08 0.66 0.08 l0 0.04 l3.3 0 c0.16 0 0.64 0.04 0.62 0.04 c0.14 0 0.44 0.04 0.52 -0.04 c0.14 0 0.18 0.06 0.32 0.06 c0.04 0 0.06 -0.02 0.14 -0.06 l0.68 0 l0.06 0.04 l0.86 0 c0.08 -0.02 0.28 -0.08 0.3 -0.08 l0 0.02 c0.3 0 0.92 -0.06 0.92 0.34 c0 0.58 -0.22 0.46 -0.22 0.7 c0 0.12 -0.12 0.08 -0.48 0.82 c-0.1 0 -0.74 0.98 -0.74 1.18 c-0.22 0.46 -0.26 0.18 -0.6 1.06 c0 0 0.02 0 0.02 0.02 c0 0.04 -0.28 0.16 -0.28 0.38 c-0.2 0.44 0.04 -0.08 -0.48 0.82 l0.02 0.02 c0 0.06 -0.48 0.34 -0.48 0.68 c-0.02 0.1 -0.18 0.4 -0.36 0.62 c0 0.38 -0.3 0.08 -0.48 0.96 c0 0.02 -0.4 0.42 -0.48 0.74 l0.02 0 c0 0.06 -0.44 0.48 -0.44 0.66 c0 0.16 -0.22 0.28 -0.22 0.34 c0 0 -0.56 1.08 -0.68 1.08 c0 0 0.02 0 0.02 0.02 c0 0.3 -0.56 0.64 -0.56 0.96 c0 0.02 -0.36 0.34 -0.36 0.62 c-0.54 0.66 -0.38 0.82 -0.62 1.06 c-0.22 0.36 -0.28 0.34 -0.36 0.58 c0.02 0.02 0.02 0.02 0.02 0.04 c0 0.08 -0.26 0.3 -0.26 0.48 c0.02 0.04 0.14 0.22 0.16 0.2 l2.7 0 c0.2 0 0.58 -0.04 0.74 -0.12 l-0.02 0 s0.98 -0.08 1.14 -0.28 c0.04 0 0.16 -0.14 0.2 -0.14 l-0.02 0 c0 -0.02 0.36 -0.14 0.44 -0.22 c0.16 0 0 0 0.74 -0.74 c0 -0.18 0.28 -0.22 0.4 -0.48 c-0.02 0 -0.04 -0.02 -0.04 -0.02 c0 -0.08 0.24 -0.24 0.48 -0.82 c0.14 0 0.12 -0.4 0.3 -0.52 l0 0.04 s0.08 -1.02 0.6 -1.02 c0.32 0 0.34 0.32 0.34 0.68 c0 0.26 -0.06 1.34 -0.06 1.8 c0 0.1 0 0.16 0.02 0.18 c0 0.02 -0.04 1.12 -0.04 1.64 c0 0.56 -0.2 0.56 -0.38 0.64 c-0.76 0 -1.58 -0.02 -1.98 -0.06 c-0.02 0 -0.16 0.02 -0.22 0.02 c-0.36 0 -0.28 -0.02 -0.38 -0.02 c-0.48 0 -0.78 0.06 -1.06 0.06 c-0.16 0 -0.28 0 -0.3 -0.08 c-0.04 0 -0.24 0.06 -0.26 0.06 c-0.14 0 -0.12 -0.18 -0.16 -0.18 c-0.18 0 -0.38 0.14 -0.44 0.2 c-0.08 -0.02 -0.4 -0.08 -0.5 -0.12 c-0.22 0 -0.18 0.14 -0.28 0.14 c-0.06 0 -0.18 -0.02 -0.22 -0.06 l0 -0.08 l-0.26 0 c0 0.04 -0.02 0.08 0.02 0.08 l-0.32 0 c-0.04 0 0.02 -0.04 -0.12 -0.12 c-0.06 0.02 -0.1 0.06 -0.1 0.1 c-0.2 0 -0.16 0 -0.22 -0.02 l0.02 -0.04 l-0.28 0 l0.04 0.08 l-0.08 0.04 l-0.7 0 c-0.06 0.04 -0.12 0.04 -0.16 0.04 c-0.12 0 -0.2 -0.04 -0.32 -0.04 c-0.04 0 -0.4 0.04 -0.42 0.04 c-0.02 0.02 -0.02 0.02 -0.04 0.02 c-0.08 0 -0.24 -0.1 -1.02 -0.1 c-0.26 0 -0.64 0.08 -0.86 0.08 c-0.5 0 -0.6 -0.12 -0.6 -0.46 z M49.137 19.92 c-0.02 0 -0.04 0 -0.04 0.02 c0 0 0.02 0.02 0.04 0.02 s0.02 -0.02 0.02 -0.02 c0 -0.02 0 -0.02 -0.02 -0.02 z M44.597 19.84 c-0.04 0.02 -0.04 0.04 -0.04 0.08 l0.1 0 z M44.937 19.92 l-0.02 -0.04 z M45.497 19.88 c0 -0.02 -0.04 -0.02 -0.04 -0.02 c-0.04 0 -0.06 0 -0.06 0.02 s0.02 0.04 0.06 0.04 c0 0 0.04 -0.02 0.04 -0.04 z M45.557 19.8 c-0.02 0 -0.02 0.02 -0.02 0.04 s0 0.04 0.02 0.04 s0.02 -0.02 0.02 -0.04 s0 -0.04 -0.02 -0.04 z M49.177 19.88 c0 -0.02 -0.02 -0.02 -0.02 -0.02 c-0.02 0 -0.02 0 -0.02 0.02 s0 0.04 0.02 0.04 c0 0 0.02 -0.02 0.02 -0.04 z M50.237 19.88 c0 -0.02 -0.02 -0.02 -0.04 -0.02 s-0.04 0 -0.04 0.02 s0.02 0.04 0.04 0.04 s0.04 -0.02 0.04 -0.04 z M53.357 19.84 c0.04 0.04 0.08 0.04 0.16 0.04 l0 -0.04 l-0.16 0 z M44.437 19.56 c-0.04 0.02 0.02 0.02 0.06 0.08 c0 0 -0.04 -0.08 -0.06 -0.08 z M44.277 19.46 c0.02 0.04 0.08 0.06 0.12 0.06 c0.02 -0.06 0.04 -0.12 0.06 -0.16 c0 0 0 -0.04 -0.02 -0.06 z M46.357 19.46 c0 0 -0.02 0.02 -0.02 0.04 l0.02 0.02 c0.02 0 0.02 -0.02 0.02 -0.02 c0 -0.02 0 -0.04 -0.02 -0.04 z M45.557 17.52 l0 0.04 l0.04 0 l0 -0.04 l-0.04 0 z M55.577 15.379999999999999 c0 -0.02 -0.02 -0.02 -0.02 -0.02 c-0.02 0 -0.02 0 -0.02 0.02 s0 0.02 0.02 0.02 c0 0 0.02 0 0.02 -0.02 z M47.957 13.26 c0 0.06 0.06 0.04 0.04 0.04 l0 -0.08 c-0.02 0 -0.04 0 -0.04 0.04 z M45.017 9.02 l0 0.04 l0.04 0 z M44.897 8.86 c-0.02 0 -0.04 0.02 -0.04 0.04 s0.02 0.04 0.04 0.04 s0.02 -0.02 0.02 -0.04 s0 -0.04 -0.02 -0.04 z M45.497 8.68 c-0.02 0 -0.04 0.02 -0.04 0.04 c0 0 0.02 0.02 0.04 0.02 s0.02 -0.02 0.02 -0.02 c0 -0.02 0 -0.04 -0.02 -0.04 z M44.937 8.6 c-0.02 0 -0.02 0.02 -0.02 0.04 s0 0.04 0.02 0.04 s0.02 -0.02 0.02 -0.04 s0 -0.04 -0.02 -0.04 z M45.497 8.6 c-0.02 0 -0.04 0.02 -0.04 0.04 s0.02 0.04 0.04 0.04 s0.02 -0.02 0.02 -0.04 s0 -0.04 -0.02 -0.04 z M45.637 8.28 c-0.04 0.04 -0.06 0.06 -0.08 0.1 l0.1 0 c0 -0.04 0 -0.08 -0.02 -0.1 z M45.077 5.699999999999999 c0 0.06 0 0.1 -0.02 0.14 l0.04 0 z M52.617000000000004 5.640000000000001 c-0.02 0 -0.04 0.04 -0.04 0.06 s0.02 0.04 0.04 0.04 s0.02 -0.02 0.02 -0.04 s0 -0.06 -0.02 -0.06 z M45.057 5.640000000000001 c-0.02 0 -0.04 0.02 -0.04 0.04 s0.02 0.02 0.04 0.02 c0 0 0.02 0 0.02 -0.02 s-0.02 -0.04 -0.02 -0.04 z M45.137 5.58 c-0.04 0 -0.04 0.02 -0.06 0.04 c-0.02 -0.02 0.02 0.04 0.06 -0.04 z M52.977000000000004 5.52 l0.04 0.02 l-0.02 0 s0.02 0 0.06 -0.02 l-0.08 0 z M45.057 5.300000000000001 l0 0.18 l0.02 -0.18 l-0.02 0 z M52.577 5.380000000000001 c0 0.04 0.04 0.1 0.04 0.1 c0.04 0 0.04 -0.08 0.06 -0.14 c-0.06 0 -0.06 0 -0.1 0.04 z M46.697 5.34 c0.04 0.02 -0.06 0.12 0.2 0.12 c-0.02 -0.1 -0.06 -0.16 -0.12 -0.16 c-0.04 0 -0.08 0.02 -0.08 0.04 z M50.317 5.34 c0.06 0.06 0.12 0.1 0.18 0.12 c0.02 0 0.04 0 0.06 -0.04 c-0.08 -0.08 -0.08 -0.08 -0.24 -0.08 z M54.977000000000004 5.300000000000001 c0.02 0.16 0.02 0.16 0.1 0.16 c0.02 0 0.02 0 0.02 -0.04 c0 -0.08 -0.06 -0.12 -0.1 -0.16 z M49.417 5.32 c0 0.14 0.2 0.04 0.2 0.1 l-0.04 0 s0.04 0.02 0.08 0.02 s0.12 -0.02 0.12 -0.12 c0 -0.04 -0.04 -0.1 -0.06 -0.1 c-0.12 0.02 -0.22 0.08 -0.3 0.1 z M45.097 5.18 c0 0 -0.02 0.02 -0.02 0.04 s0.02 0.04 0.02 0.04 c0.02 0 0.02 -0.02 0.02 -0.04 s0 -0.04 -0.02 -0.04 z M71.656 20.22 c-0.04 -0.04 -0.16 -0.12 -0.2 -0.16 c0.04 0 -0.46 -0.46 -0.46 -0.68 c0 -0.08 -0.44 -0.52 -0.44 -0.72 c0 -0.18 -0.58 -0.46 -0.58 -0.86 c-0.28 -0.6 -0.48 -0.6 -0.52 -0.8 c0.02 0 0.04 0 0.04 -0.02 s-0.48 -0.36 -0.38 -0.56 c0 0 -0.02 0.02 -0.04 0.02 c-0.04 0 -0.14 -0.08 -0.44 -0.7 c0 -0.12 -0.42 -0.3 -0.5 -0.72 c-0.38 -0.26 -0.04 -0.42 -0.84 -1.22 c-0.26 -0.2 0.2 0.18 -0.7 -1.08 c0 -0.04 0 -0.06 0.04 -0.1 c0 -0.04 -0.04 -0.04 -0.14 -0.04 l0 -0.02 c0 -0.1 -0.3 -0.24 -0.3 -0.42 c0 -0.08 -0.18 -0.46 -0.5 -0.78 c-0.02 0.02 -0.02 0.04 -0.02 0.04 l0 0 s0.02 -0.02 0.02 -0.04 c0 -0.08 -0.08 -0.28 -0.52 -0.76 c0 -0.26 -0.38 -0.34 -0.48 -0.76 c0 -0.08 -0.6 -0.58 -0.62 -0.92 l0 -0.02 c0 -0.12 -0.34 -0.32 -0.5 -0.72 c0 -0.26 -0.42 -0.38 -0.42 -0.72 c-0.1 0 -0.16 -0.36 -0.68 -0.9 c-0.1 0.02 -0.26 0.1 -0.26 0.18 l0 0.76 c0 0.04 0.02 0.1 0.02 0.14 c0 0.02 -0.02 0.64 -0.02 0.72 c0 0.68 0.02 0.84 0.02 1.04 c0 1.06 -0.02 1.32 -0.02 1.66 c0 0.68 0.06 1.26 0.06 1.98 c0 0.02 -0.04 0.08 -0.04 0.36 l0 5.82 c0.06 0.06 0.16 0.2 0.24 0.2 l1.42 0 c0.2 0 0.46 0.12 0.46 0.4 c0 0.18 -0.14 0.22 -0.3 0.22 l-1.34 0 l-0.24 -0.08 l0.08 0 l-0.12 -0.12 l0 0.16 c-0.14 0.02 -1.32 0.06 -1.32 0.06 c-0.02 0 -0.06 0 -0.1 -0.02 c0.04 -0.02 0.08 -0.04 0.1 -0.08 c-0.16 0 -0.16 0.02 -0.22 0.08 l-0.38 0 l-0.04 -0.04 l0.04 -0.04 l-0.04 -0.04 c-0.04 0.02 -0.2 0.04 -0.2 0.08 l0.04 0.04 c-0.14 0.04 -0.22 0.02 -0.4 0.02 s-0.44 -0.02 -0.44 -0.26 c0 -0.44 0.74 -0.46 1.28 -0.46 l0.08 0.04 l0.5 0 l0.02 0 c0.18 0 0.18 -0.84 0.18 -1.22 c0 -3.14 -0.08 -3.88 -0.08 -10.28 c0.08 -0.24 0.08 -1.12 0.08 -1.58 c0 -0.44 -0.06 -0.74 -0.64 -0.74 c-0.66 0.04 -0.48 0.16 -0.86 0.16 c-0.28 0 -0.64 -0.1 -0.64 -0.44 c0 -0.22 0.38 -0.52 0.6 -0.52 c0.58 0 -0.06 0.2 1.56 0.2 c0.18 0 0.36 -0.06 0.46 -0.06 c0.3 0 0.6 0.06 0.88 0.06 c0.16 0 0.3 -0.02 0.38 -0.06 c0.06 0.04 0.24 0.04 0.3 0.04 l1.02 0 c0.48 0 0.94 0.98 0.96 0.98 c0.06 0 0.68 1.04 0.68 1.14 c0 0 1.62 2.42 2.06 3.08 l0 0.02 c0 0.04 0.3 0.22 0.3 0.44 l-0.02 0 l-0.02 0 c0 0.06 0.42 0.38 0.42 0.54 c0.56 0.74 0.26 0.68 0.84 1.26 l0.28 0.58 c0.02 0.06 0.46 0.46 0.46 0.68 c0.24 0.02 0.36 0.9 0.7 0.92 c0.08 0 0.2 0 0.2 -0.1 l0 -1.6 c0 -0.02 0.04 -0.14 0.04 -0.16 c0 -0.22 -0.04 -0.34 -0.04 -0.52 c0 -0.64 -0.04 -4.06 -0.04 -6.24 c-0.04 -0.18 -0.12 -0.32 -0.22 -0.4 c-0.7 0 -0.72 0.04 -0.92 0.04 c-0.66 0 -0.82 0.04 -0.82 -0.42 c0 -0.24 0.28 -0.28 0.72 -0.28 c0.34 0 0.88 0.02 1.56 0.08 c0.06 0 0.24 -0.04 0.3 -0.04 c0.08 0 0.24 0.04 0.36 0.04 c0.48 -0.04 0.94 -0.08 1.28 -0.08 c0.02 0.04 0.38 0.12 0.42 0.24 l0 0.34 c-0.02 0.08 -0.36 0.12 -0.46 0.12 c-0.22 0 -0.5 -0.04 -0.72 -0.04 c-0.66 0.16 -0.78 -0.18 -0.78 0.56 l0 2.98 c0 0.2 0.02 0.28 0.02 0.62 c0 0.42 0 2.9 -0.06 3 c0 -0.04 0.04 1.98 0.04 2.26 c0 0.8 -0.04 0.72 -0.04 0.86 c0 0.1 0.06 0.44 0.06 0.56 l0 -0.06 c0 0 -0.06 0.26 -0.06 1.5 c0 0.78 0.06 1.62 0.06 1.96 c0 0.14 -0.04 0.22 -0.28 0.48 c0 0.02 0 0.04 -0.02 0.04 s-0.06 -0.1 -0.2 -0.1 z M71.656 20.04 l0 0.02 l0.06 0 z M59.796 19.96 c0.02 0.02 0.02 0.04 0.06 0.04 c-0.02 -0.04 -0.06 -0.04 -0.06 -0.04 z M60.096 19.96 c-0.04 0 -0.06 0.02 -0.08 0.04 l0.04 0 s0.04 0 0.06 -0.04 l-0.02 0 z M60.596 19.96 l0.04 0.04 c0.04 0 0.2 -0.12 0.2 -0.32 l-0.12 0 c0 0.12 0.02 0.2 -0.12 0.28 z M61.336 19.96 c0 -0.02 -0.02 -0.02 -0.04 -0.02 c0 0 -0.02 0 -0.02 0.02 s0.02 0.04 0.02 0.04 c0.02 0 0.04 -0.02 0.04 -0.04 z M63.076 19.92 c0 0 -0.02 0.02 -0.02 0.04 s0.02 0.04 0.02 0.04 c0.02 0 0.02 -0.02 0.02 -0.04 s0 -0.04 -0.02 -0.04 z M63.336 19.92 l0 0.04 l0.04 0 l0 -0.04 l-0.04 0 z M64.116 19.92 c-0.02 0 -0.04 0.02 -0.04 0.04 s0.02 0.04 0.04 0.04 s0.02 -0.02 0.02 -0.04 s0 -0.04 -0.02 -0.04 z M60.876 19.9 c-0.02 0 -0.04 0 -0.04 0.02 l0.06 0 c0 -0.02 -0.02 -0.02 -0.02 -0.02 z M63.736 19.88 c-0.04 0 -0.06 0 -0.08 0.02 z M59.656 19.76 l0 0.04 l0 -0.06 l0 0.02 z M59.656 19.68 c0.04 0.02 0.1 0.02 0.14 0.08 c0.04 0 0.12 -0.06 0.14 -0.12 l-0.28 0 l0 0.04 z M64.176 19.64 l0 0.1 l0.04 0 c0 -0.04 0 -0.08 -0.04 -0.1 z M64.056 19.58 c-0.04 0 -0.12 0.02 -0.12 0.08 c0 0.02 0.02 0.02 0.02 0.04 c0.06 0 0.1 -0.04 0.1 -0.12 z M61.796 19.34 c0 0.04 0.02 0.08 0.06 0.08 s0.14 -0.04 0.14 -0.04 l0 -0.04 l-0.2 0 z M62.056 19.06 l0 0.12 l0.02 0 c0 -0.02 0 -0.06 -0.02 -0.12 z M61.856 18.2 c-0.06 0 -0.06 0.06 -0.06 0.06 l0.06 -0.06 l0 0 z M61.796 17.14 c-0.02 0 -0.02 0.02 -0.02 0.04 l0.04 0 c0 -0.02 0 -0.04 -0.02 -0.04 z M61.995999999999995 16.84 l0 0.02 l0.02 0 z M69.416 16.86 l-0.02 0 l0.02 0 z M61.856 16.16 l0.08 0.08 c0 -0.02 0.02 -0.04 0.02 -0.06 s-0.04 -0.06 -0.1 -0.08 c-0.1 0 -0.12 0 -0.16 0.02 c0 0.06 0.02 0.06 0.04 0.08 c0.04 -0.02 0.08 -0.04 0.12 -0.04 z M62.016 15.68 l0.04 0.04 c0.02 -0.02 0.02 -0.04 0.02 -0.08 c0 0 -0.04 0.02 -0.06 0.04 z M61.736 15.18 c-0.02 0 -0.04 0.02 -0.04 0.02 s0.02 0.02 0.04 0.02 s0.02 -0.02 0.02 -0.02 s0 -0.02 -0.02 -0.02 z M61.696 13.18 c-0.02 0 -0.04 0.02 -0.04 0.04 l0.04 0 l0.02 0 c0 -0.02 0 -0.04 -0.02 -0.04 z M61.696 13.02 l0 0.08 c0 0.02 0.02 0.02 0.02 0.02 c0.04 0 0.06 -0.1 0.06 -0.1 l-0.08 0 z M61.696 12.46 c-0.02 0 -0.04 0.02 -0.04 0.02 c0 0.02 0.02 0.02 0.04 0.02 s0.02 0 0.02 -0.02 c0 0 0 -0.02 -0.02 -0.02 z M61.696 9.3 c-0.02 0 -0.04 0.02 -0.04 0.04 s0.02 0.04 0.04 0.04 s0.02 -0.02 0.02 -0.04 s0 -0.04 -0.02 -0.04 z M61.656 9.22 c-0.02 0 -0.02 0.02 -0.02 0.04 l0.04 0 c0 -0.02 0 -0.04 -0.02 -0.04 z M72.256 5.48 c0 0 -0.02 0 -0.02 0.02 s0.02 0.04 0.02 0.04 c0.02 0 0.02 -0.02 0.02 -0.04 s0 -0.02 -0.02 -0.02 z M72.716 5.42 c0 0.06 0.06 0.06 0.08 0.06 l0.08 -0.26 c0.1 0 0.18 0.08 0.3 0.08 c0.02 0 0.04 0 0.04 -0.08 c0 -0.1 -0.16 -0.1 -0.28 -0.1 l0.02 0 s-0.26 0.12 -0.26 0.26 c0 0 0 0.02 0.02 0.04 z M73.736 5.1 l-0.02 -0.02 c0 0.04 0.12 0.32 0.12 0.4 c0.02 0 0.1 0 0.1 -0.24 c0 -0.16 -0.18 -0.12 -0.2 -0.14 z M72.476 5.42 c-0.02 0 -0.02 0.02 -0.02 0.04 c0 0 0 0.02 0.02 0.02 s0.02 -0.02 0.02 -0.02 c0 -0.02 0 -0.04 -0.02 -0.04 z M72.456 5.380000000000001 c-0.02 0 -0.02 0.02 -0.02 0.02 c0 0.02 0 0.02 0.02 0.02 c0 0 0.02 0 0.02 -0.02 z M60.796 5.279999999999999 c-0.02 0 -0.02 0.02 -0.02 0.02 c0 0.02 0.06 0.06 0.1 0.08 l0 -0.1 l-0.08 0 z M61.955999999999996 5.279999999999999 c0.02 0.02 0.04 0.08 0.04 0.08 c0.02 0 0.02 0 0.02 -0.02 l0 -0.12 l0 0 l-0.02 0 c0 0 -0.02 0.02 -0.04 0.06 z M59.656 5.18 l0 0.08 c0.04 -0.04 0.08 -0.06 0.08 -0.12 c0 -0.02 -0.04 -0.02 -0.06 -0.02 s-0.02 0.02 -0.02 0.02 l0 0.04 z M61.455999999999996 5.18 c0 0.04 0 0.06 0.04 0.08 c0.02 -0.02 0.04 -0.04 0.04 -0.08 l-0.08 0 z M71.236 5.18 l0 0.08 l0.02 0 z M71.736 5.140000000000001 l0 0.12 c0.06 0 0.08 -0.08 0.08 -0.12 l-0.08 0 z M71.896 5.140000000000001 c0 0.08 0.02 0.12 0.06 0.12 c0.02 0 0.02 0 0.02 -0.02 c0 -0.06 -0.04 -0.1 -0.06 -0.1 l-0.02 0 z M69.876 5.119999999999999 l-0.02 0.02 s0.08 0.08 0.14 0.08 c0 0 0.02 0 0.1 -0.08 c0 -0.02 -0.16 -0.02 -0.22 -0.02 z M73.416 5.140000000000001 c-0.06 0 -0.06 0.04 -0.06 0.1 c0.02 0 0.06 -0.06 0.1 -0.1 l-0.04 0 z M60.396 5.140000000000001 c0.02 0.04 0.02 0.06 0.04 0.06 s0.02 -0.02 0.04 -0.02 l0 -0.04 l-0.08 0 z M69.716 5.119999999999999 l0 0.02 l0.02 0 z M77.695 19.72 l0 -0.1 l0.24 -0.24 l0.98 0 l0.08 0.04 l0.46 0.04 c0.08 0.04 0.18 -0.26 0.24 -0.26 l0 -2.42 c0 -0.02 -0.04 -0.26 -0.04 -0.28 c0 0 0.04 -0.48 0.04 -0.58 c0.04 -0.06 -0.06 0.08 -0.06 -0.32 c0 -0.04 0.06 -0.08 0.06 -0.16 c0 -0.14 -0.04 -0.22 -0.04 -0.32 c0 -0.04 0.04 -0.18 0.04 -0.26 l0 -1.26 c0 -0.18 -0.06 -0.5 -0.06 -0.74 l0.02 -1.72 c-0.02 -0.08 -0.02 -0.6 -0.02 -0.7 c0 -0.06 0.02 -0.52 0.02 -0.58 c0 -0.02 -0.02 -1.04 -0.02 -1.16 c0 -1.24 0.02 -1.46 0.02 -2 c0 -0.24 0 -0.76 -0.02 -0.92 l-0.12 -0.14 s-0.4 -0.02 -0.56 -0.02 c-0.26 0 -0.46 0.06 -0.7 0.06 c-0.22 -0.04 -0.44 0.12 -0.64 -0.34 c0 -0.18 0.04 -0.4 0.22 -0.44 c4.08 0 4.5 0.04 6.12 0.04 c3.88 0 3.66 -0.04 5.28 -0.04 c0.2 0 0.42 3.66 0.42 3.84 c0 0.02 0.02 0.02 0.02 0.04 c0 0.24 -0.36 0.42 -0.48 0.42 c-0.26 0 -0.4 -0.28 -0.48 -0.6 c0.08 0 -0.86 -1.54 -0.82 -1.46 c-0.26 -0.26 -0.28 -0.3 -0.44 -0.5 c0 -0.18 -0.86 -0.58 -0.96 -0.72 c0 0.02 -0.02 0.02 -0.02 0.02 c-0.06 0 -0.12 -0.24 -0.54 -0.24 c-0.56 0 -0.52 -0.08 -1.38 -0.08 l0 -0.04 l-0.62 0 l-0.04 0.04 l-0.26 0 l0.14 -0.04 c-0.46 0 -0.66 -0.06 -0.78 -0.06 c-0.18 0 -0.4 0.1 -0.4 0.68 c0 1.12 0.04 1.72 0.04 2 c0 0.3 -0.04 1.18 -0.04 1.3 c0 0.34 0.08 0.62 0.08 0.86 c-0.04 0 -0.08 0.14 -0.08 0.2 s0.08 0.44 0.08 0.62 c0 0.04 -0.04 0.1 -0.04 0.12 c0 0.06 -0.06 0.82 0.14 0.82 c0.46 0 0.8 -0.12 1.16 -0.12 l0 0.02 c0.06 0 0.24 -0.3 0.38 -0.3 c0.24 0 0.28 -0.08 0.54 -0.34 l0 0.02 c-0.02 0 0.34 -0.72 0.54 -0.96 c0.34 -0.16 -0.12 -1 0.88 -1 l0.06 0.04 c0 0.18 0.1 0.24 0.1 0.8 c-0.02 0.16 -0.04 0.68 -0.04 0.64 c0 0.22 0.04 0.56 0.04 0.84 c0 0.24 0 0.24 -0.04 0.36 c0 0.2 0.04 0.46 0.04 0.52 c0 0.26 -0.04 0.26 -0.04 0.46 c0 0.16 0.04 1.24 0.04 1.38 c0 0.08 -0.04 0.16 -0.04 0.28 l0 0.74 c0.02 0.02 -0.16 0.16 -0.26 0.16 c-0.64 0 -0.1 -0.12 -0.82 -1.42 c-0.56 -0.98 -0.74 -0.94 -1.06 -1.22 c0.02 0 -0.58 -0.2 -0.72 -0.2 l-0.06 -0.1 l-0.64 -0.02 c-0.3 0.16 -0.26 1 -0.26 0.68 c0 0.08 0.06 0.28 0.06 0.58 c0 0.14 -0.02 0.38 -0.06 0.6 c0 0.02 0.06 0.2 0.06 0.32 c0 0.2 -0.04 0.18 -0.04 0.26 c0 0.14 0.04 0.22 0.04 0.28 c-0.06 0.78 -0.08 2.18 -0.08 2.42 c0 1.26 -0.02 1.36 0.28 1.66 l0.86 0 c0.08 -0.02 0.18 -0.08 0.26 -0.08 c0.02 0 1.2 0.04 1.36 0.04 s0.02 -0.1 0.44 -0.1 c0.76 -0.3 0.72 -0.04 1.36 -0.54 c-0.02 0 -0.02 -0.02 -0.02 -0.02 c0 -0.06 0.5 -0.28 0.76 -0.6 c-0.02 0 -0.02 -0.02 -0.02 -0.02 c0 -0.3 0.88 -0.52 0.88 -1.24 c0 -0.08 0.36 -0.54 0.36 -0.66 c0.5 -1.26 0.18 -1.2 0.82 -1.2 c0.02 0 0.24 0 0.24 0.26 c0 1.3 -0.2 2.9 -0.2 3.8 c0 0.14 0.02 0.28 0.02 0.42 c0 0.24 -0.08 0.44 -0.56 0.44 l-7.7 0 c-1.16 0 -1.58 0.04 -3.72 0.04 c-0.38 -0.12 -0.28 -0.28 -0.28 -0.32 z M77.895 19.8 l0 -0.02 l0 0.06 c0 0.06 0.02 0.14 0.2 0.14 c0.04 0 0.1 0 0.16 -0.02 l0 -0.04 l-0.16 -0.18 c-0.02 0.04 -0.04 0.08 -0.08 0.1 c-0.02 0 -0.08 -0.02 -0.12 -0.06 l0 0.02 z M84.995 19.88 l0.02 0.04 c0.02 -0.02 0.02 -0.02 0.02 -0.08 z M84.215 19.84 c-0.06 0 -0.08 0 -0.1 0.04 l0.1 0 l0 -0.04 z M78.595 19.62 c0.04 0 0.12 0.04 0.14 0.04 c0.18 0 0.12 0 0.18 -0.04 c-0.04 0 -0.18 -0.04 -0.2 -0.04 c-0.08 0 -0.08 0 -0.12 0.04 z M89.575 19.62 c0.02 0.06 0.08 0.04 0.12 0.04 c-0.02 -0.04 -0.06 -0.04 -0.12 -0.04 z M80.135 19.62 c0 -0.02 -0.02 -0.02 -0.04 -0.02 s-0.04 0 -0.04 0.02 s0.02 0.04 0.04 0.04 s0.04 -0.02 0.04 -0.04 z M78.015 19.56 l0 0.02 l0.2 0 c-0.04 -0.02 -0.16 -0.02 -0.2 -0.02 z M79.855 16.9 l-0.02 -0.02 c-0.02 0 -0.02 0.02 -0.02 0.02 c0 0.02 0 0.04 0.02 0.04 c0 0 0.02 -0.02 0.02 -0.04 z M79.815 16.04 l0 0.08 c0.02 0 0.02 -0.02 0.02 -0.04 s0 -0.04 -0.02 -0.04 z M79.855 15.92 c0.02 0.04 0.06 0.04 0.12 0.04 c0 -0.04 0.02 -0.16 -0.04 -0.2 c0 0.04 -0.08 0.1 -0.08 0.16 z M79.975 15.54 c0 0.02 0 0.04 0.02 0.06 l0.02 -0.06 l-0.04 0 z M89.975 15.54 c-0.02 0 -0.04 0.02 -0.04 0.04 c0 0 0.02 0.02 0.04 0.02 s0.02 -0.02 0.02 -0.02 c0 -0.02 0 -0.04 -0.02 -0.04 z M90.075 15.5 c-0.02 0 -0.02 0.02 -0.02 0.04 c0 0 0 0.02 0.02 0.02 l0 -0.06 z M79.855 12.48 c-0.02 0 -0.04 0.02 -0.04 0.04 c0 0 0.02 0.02 0.04 0.02 s0.02 -0.02 0.02 -0.02 c0 -0.02 0 -0.04 -0.02 -0.04 z M79.995 12.48 c0 -0.02 0 -0.02 -0.02 -0.02 l0 0.04 c0.02 0 0.02 0 0.02 -0.02 z M79.855 11.6 l-0.02 -0.02 c-0.02 0 -0.02 0.02 -0.02 0.02 c0 0.02 0 0.04 0.02 0.04 c0 0 0.02 -0.02 0.02 -0.04 z M86.235 9.92 c0 -0.02 -0.02 -0.02 -0.04 -0.02 c0 0 -0.02 0 -0.02 0.02 s0.02 0.04 0.02 0.04 c0.02 0 0.04 -0.02 0.04 -0.04 z M89.075 8.96 c-0.02 0 -0.04 0.02 -0.04 0.04 c0 0 0.02 0.02 0.04 0.02 s0.02 -0.02 0.02 -0.02 c0 -0.02 0 -0.04 -0.02 -0.04 z M82.115 7.960000000000001 c-0.02 0.02 -0.02 0.06 -0.02 0.08 l0.22 0 c-0.02 -0.04 -0.1 -0.08 -0.2 -0.08 z M79.815 7.18 l0 0.08 c0.02 0 0.02 -0.02 0.02 -0.04 s0 -0.04 -0.02 -0.04 z M79.815 6.16 l0 0.08 c0.02 0 0.02 -0.02 0.02 -0.04 s0 -0.04 -0.02 -0.04 z M89.275 5.42 l0 0.2 l0.02 -0.1 c0 -0.04 0 -0.06 -0.02 -0.1 z M79.115 5.539999999999999 c-0.02 0 -0.02 0.02 -0.02 0.04 s0 0.04 0.02 0.04 s0.02 -0.02 0.02 -0.04 s0 -0.04 -0.02 -0.04 z M80.795 5.58 c0 -0.02 -0.02 -0.02 -0.02 -0.02 c-0.02 0 -0.02 0 -0.02 0.02 s0 0.04 0.02 0.04 c0 0 0.02 -0.02 0.02 -0.04 z M78.555 5.380000000000001 c-0.18 0 -0.08 0.14 -0.14 0.16 c0.12 0 0.14 -0.02 0.14 -0.06 c0 -0.02 -0.02 -0.04 -0.02 -0.06 s0.02 -0.02 0.02 -0.04 z M79.035 5.48 l0.06 0.04 l0.02 -0.04 l-0.04 -0.02 z M78.155 5.42 c-0.02 0 -0.02 0.02 -0.02 0.04 c0 0 0 0.02 0.02 0.02 s0.02 -0.02 0.02 -0.02 c0 -0.02 0 -0.04 -0.02 -0.04 z M78.355 5.34 l-0.14 0.04 l0.14 0 l0 -0.04 z M80.135 5.34 c-0.02 0 -0.04 0.02 -0.04 0.02 c0 0.02 0.02 0.02 0.04 0.02 c0 0 0.02 0 0.02 -0.02 z M82.155 5.34 l0 0.04 l0.02 0 z M78.455 5.34 l-0.04 0 c0 0.02 0 0.04 0.02 0.04 c0 0 0.02 -0.02 0.02 -0.04 z M78.915 5.32 c-0.04 0 -0.04 0.04 -0.04 0.04 c0.02 0 0.02 -0.02 0.04 -0.04 z M79.775 5.34 l-0.04 0 c0 0.02 0 0.04 0.02 0.04 c0 0 0.02 -0.02 0.02 -0.04 z M83.035 5.32 c-0.04 0 -0.08 0.02 -0.12 0.02 l0.14 0 z M77.855 5.32 c0 0 0 -0.02 -0.02 -0.02 l0 0.04 c0.02 0 0.02 0 0.02 -0.02 z M83.895 5.26 c0 0.08 0.02 0.04 0.04 0.06 c0 0 0.02 0 0.04 -0.02 l-0.04 -0.08 z M89.195 5.0600000000000005 l0 0.24 l0.04 0 c0 -0.06 0.02 -0.24 -0.04 -0.24 z M78.675 5.1 c-0.02 0 -0.04 0.02 -0.04 0.02 c0 0.02 0.02 0.02 0.04 0.02 s0.02 0 0.02 -0.02 c0 0 0 -0.02 -0.02 -0.02 z M78.015 5.1 l-0.02 -0.04 z M78.255 5.02 c-0.04 0.02 -0.06 0.04 -0.06 0.06 l0.02 0.02 l0.04 0 l0 -0.08 z M106.054 20.22 c-0.04 -0.04 -0.16 -0.12 -0.2 -0.16 c0.04 0 -0.46 -0.46 -0.46 -0.68 c0 -0.08 -0.44 -0.52 -0.44 -0.72 c0 -0.18 -0.58 -0.46 -0.58 -0.86 c-0.28 -0.6 -0.48 -0.6 -0.52 -0.8 c0.02 0 0.04 0 0.04 -0.02 s-0.48 -0.36 -0.38 -0.56 c0 0 -0.02 0.02 -0.04 0.02 c-0.04 0 -0.14 -0.08 -0.44 -0.7 c0 -0.12 -0.42 -0.3 -0.5 -0.72 c-0.38 -0.26 -0.04 -0.42 -0.84 -1.22 c-0.26 -0.2 0.2 0.18 -0.7 -1.08 c0 -0.04 0 -0.06 0.04 -0.1 c0 -0.04 -0.04 -0.04 -0.14 -0.04 l0 -0.02 c0 -0.1 -0.3 -0.24 -0.3 -0.42 c0 -0.08 -0.18 -0.46 -0.5 -0.78 c-0.02 0.02 -0.02 0.04 -0.02 0.04 l0 0 s0.02 -0.02 0.02 -0.04 c0 -0.08 -0.08 -0.28 -0.52 -0.76 c0 -0.26 -0.38 -0.34 -0.48 -0.76 c0 -0.08 -0.6 -0.58 -0.62 -0.92 l0 -0.02 c0 -0.12 -0.34 -0.32 -0.5 -0.72 c0 -0.26 -0.42 -0.38 -0.42 -0.72 c-0.1 0 -0.16 -0.36 -0.68 -0.9 c-0.1 0.02 -0.26 0.1 -0.26 0.18 l0 0.76 c0 0.04 0.02 0.1 0.02 0.14 c0 0.02 -0.02 0.64 -0.02 0.72 c0 0.68 0.02 0.84 0.02 1.04 c0 1.06 -0.02 1.32 -0.02 1.66 c0 0.68 0.06 1.26 0.06 1.98 c0 0.02 -0.04 0.08 -0.04 0.36 l0 5.82 c0.06 0.06 0.16 0.2 0.24 0.2 l1.42 0 c0.2 0 0.46 0.12 0.46 0.4 c0 0.18 -0.14 0.22 -0.3 0.22 l-1.34 0 l-0.24 -0.08 l0.08 0 l-0.12 -0.12 l0 0.16 c-0.14 0.02 -1.32 0.06 -1.32 0.06 c-0.02 0 -0.06 0 -0.1 -0.02 c0.04 -0.02 0.08 -0.04 0.1 -0.08 c-0.16 0 -0.16 0.02 -0.22 0.08 l-0.38 0 l-0.04 -0.04 l0.04 -0.04 l-0.04 -0.04 c-0.04 0.02 -0.2 0.04 -0.2 0.08 l0.04 0.04 c-0.14 0.04 -0.22 0.02 -0.4 0.02 s-0.44 -0.02 -0.44 -0.26 c0 -0.44 0.74 -0.46 1.28 -0.46 l0.08 0.04 l0.5 0 l0.02 0 c0.18 0 0.18 -0.84 0.18 -1.22 c0 -3.14 -0.08 -3.88 -0.08 -10.28 c0.08 -0.24 0.08 -1.12 0.08 -1.58 c0 -0.44 -0.06 -0.74 -0.64 -0.74 c-0.66 0.04 -0.48 0.16 -0.86 0.16 c-0.28 0 -0.64 -0.1 -0.64 -0.44 c0 -0.22 0.38 -0.52 0.6 -0.52 c0.58 0 -0.06 0.2 1.56 0.2 c0.18 0 0.36 -0.06 0.46 -0.06 c0.3 0 0.6 0.06 0.88 0.06 c0.16 0 0.3 -0.02 0.38 -0.06 c0.06 0.04 0.24 0.04 0.3 0.04 l1.02 0 c0.48 0 0.94 0.98 0.96 0.98 c0.06 0 0.68 1.04 0.68 1.14 c0 0 1.62 2.42 2.06 3.08 l0 0.02 c0 0.04 0.3 0.22 0.3 0.44 l-0.02 0 l-0.02 0 c0 0.06 0.42 0.38 0.42 0.54 c0.56 0.74 0.26 0.68 0.84 1.26 l0.28 0.58 c0.02 0.06 0.46 0.46 0.46 0.68 c0.24 0.02 0.36 0.9 0.7 0.92 c0.08 0 0.2 0 0.2 -0.1 l0 -1.6 c0 -0.02 0.04 -0.14 0.04 -0.16 c0 -0.22 -0.04 -0.34 -0.04 -0.52 c0 -0.64 -0.04 -4.06 -0.04 -6.24 c-0.04 -0.18 -0.12 -0.32 -0.22 -0.4 c-0.7 0 -0.72 0.04 -0.92 0.04 c-0.66 0 -0.82 0.04 -0.82 -0.42 c0 -0.24 0.28 -0.28 0.72 -0.28 c0.34 0 0.88 0.02 1.56 0.08 c0.06 0 0.24 -0.04 0.3 -0.04 c0.08 0 0.24 0.04 0.36 0.04 c0.48 -0.04 0.94 -0.08 1.28 -0.08 c0.02 0.04 0.38 0.12 0.42 0.24 l0 0.34 c-0.02 0.08 -0.36 0.12 -0.46 0.12 c-0.22 0 -0.5 -0.04 -0.72 -0.04 c-0.66 0.16 -0.78 -0.18 -0.78 0.56 l0 2.98 c0 0.2 0.02 0.28 0.02 0.62 c0 0.42 0 2.9 -0.06 3 c0 -0.04 0.04 1.98 0.04 2.26 c0 0.8 -0.04 0.72 -0.04 0.86 c0 0.1 0.06 0.44 0.06 0.56 l0 -0.06 c0 0 -0.06 0.26 -0.06 1.5 c0 0.78 0.06 1.62 0.06 1.96 c0 0.14 -0.04 0.22 -0.28 0.48 c0 0.02 0 0.04 -0.02 0.04 s-0.06 -0.1 -0.2 -0.1 z M106.054 20.04 l0 0.02 l0.06 0 z M94.194 19.96 c0.02 0.02 0.02 0.04 0.06 0.04 c-0.02 -0.04 -0.06 -0.04 -0.06 -0.04 z M94.494 19.96 c-0.04 0 -0.06 0.02 -0.08 0.04 l0.04 0 s0.04 0 0.06 -0.04 l-0.02 0 z M94.994 19.96 l0.04 0.04 c0.04 0 0.2 -0.12 0.2 -0.32 l-0.12 0 c0 0.12 0.02 0.2 -0.12 0.28 z M95.73400000000001 19.96 c0 -0.02 -0.02 -0.02 -0.04 -0.02 c0 0 -0.02 0 -0.02 0.02 s0.02 0.04 0.02 0.04 c0.02 0 0.04 -0.02 0.04 -0.04 z M97.474 19.92 c0 0 -0.02 0.02 -0.02 0.04 s0.02 0.04 0.02 0.04 c0.02 0 0.02 -0.02 0.02 -0.04 s0 -0.04 -0.02 -0.04 z M97.73400000000001 19.92 l0 0.04 l0.04 0 l0 -0.04 l-0.04 0 z M98.514 19.92 c-0.02 0 -0.04 0.02 -0.04 0.04 s0.02 0.04 0.04 0.04 s0.02 -0.02 0.02 -0.04 s0 -0.04 -0.02 -0.04 z M95.274 19.9 c-0.02 0 -0.04 0 -0.04 0.02 l0.06 0 c0 -0.02 -0.02 -0.02 -0.02 -0.02 z M98.134 19.88 c-0.04 0 -0.06 0 -0.08 0.02 z M94.054 19.76 l0 0.04 l0 -0.06 l0 0.02 z M94.054 19.68 c0.04 0.02 0.1 0.02 0.14 0.08 c0.04 0 0.12 -0.06 0.14 -0.12 l-0.28 0 l0 0.04 z M98.574 19.64 l0 0.1 l0.04 0 c0 -0.04 0 -0.08 -0.04 -0.1 z M98.45400000000001 19.58 c-0.04 0 -0.12 0.02 -0.12 0.08 c0 0.02 0.02 0.02 0.02 0.04 c0.06 0 0.1 -0.04 0.1 -0.12 z M96.194 19.34 c0 0.04 0.02 0.08 0.06 0.08 s0.14 -0.04 0.14 -0.04 l0 -0.04 l-0.2 0 z M96.45400000000001 19.06 l0 0.12 l0.02 0 c0 -0.02 0 -0.06 -0.02 -0.12 z M96.254 18.2 c-0.06 0 -0.06 0.06 -0.06 0.06 l0.06 -0.06 l0 0 z M96.194 17.14 c-0.02 0 -0.02 0.02 -0.02 0.04 l0.04 0 c0 -0.02 0 -0.04 -0.02 -0.04 z M96.394 16.84 l0 0.02 l0.02 0 z M103.81400000000001 16.86 l-0.02 0 l0.02 0 z M96.254 16.16 l0.08 0.08 c0 -0.02 0.02 -0.04 0.02 -0.06 s-0.04 -0.06 -0.1 -0.08 c-0.1 0 -0.12 0 -0.16 0.02 c0 0.06 0.02 0.06 0.04 0.08 c0.04 -0.02 0.08 -0.04 0.12 -0.04 z M96.414 15.68 l0.04 0.04 c0.02 -0.02 0.02 -0.04 0.02 -0.08 c0 0 -0.04 0.02 -0.06 0.04 z M96.134 15.18 c-0.02 0 -0.04 0.02 -0.04 0.02 s0.02 0.02 0.04 0.02 s0.02 -0.02 0.02 -0.02 s0 -0.02 -0.02 -0.02 z M96.09400000000001 13.18 c-0.02 0 -0.04 0.02 -0.04 0.04 l0.04 0 l0.02 0 c0 -0.02 0 -0.04 -0.02 -0.04 z M96.09400000000001 13.02 l0 0.08 c0 0.02 0.02 0.02 0.02 0.02 c0.04 0 0.06 -0.1 0.06 -0.1 l-0.08 0 z M96.09400000000001 12.46 c-0.02 0 -0.04 0.02 -0.04 0.02 c0 0.02 0.02 0.02 0.04 0.02 s0.02 0 0.02 -0.02 c0 0 0 -0.02 -0.02 -0.02 z M96.09400000000001 9.3 c-0.02 0 -0.04 0.02 -0.04 0.04 s0.02 0.04 0.04 0.04 s0.02 -0.02 0.02 -0.04 s0 -0.04 -0.02 -0.04 z M96.054 9.22 c-0.02 0 -0.02 0.02 -0.02 0.04 l0.04 0 c0 -0.02 0 -0.04 -0.02 -0.04 z M106.654 5.48 c0 0 -0.02 0 -0.02 0.02 s0.02 0.04 0.02 0.04 c0.02 0 0.02 -0.02 0.02 -0.04 s0 -0.02 -0.02 -0.02 z M107.114 5.42 c0 0.06 0.06 0.06 0.08 0.06 l0.08 -0.26 c0.1 0 0.18 0.08 0.3 0.08 c0.02 0 0.04 0 0.04 -0.08 c0 -0.1 -0.16 -0.1 -0.28 -0.1 l0.02 0 s-0.26 0.12 -0.26 0.26 c0 0 0 0.02 0.02 0.04 z M108.134 5.1 l-0.02 -0.02 c0 0.04 0.12 0.32 0.12 0.4 c0.02 0 0.1 0 0.1 -0.24 c0 -0.16 -0.18 -0.12 -0.2 -0.14 z M106.874 5.42 c-0.02 0 -0.02 0.02 -0.02 0.04 c0 0 0 0.02 0.02 0.02 s0.02 -0.02 0.02 -0.02 c0 -0.02 0 -0.04 -0.02 -0.04 z M106.854 5.380000000000001 c-0.02 0 -0.02 0.02 -0.02 0.02 c0 0.02 0 0.02 0.02 0.02 c0 0 0.02 0 0.02 -0.02 z M95.194 5.279999999999999 c-0.02 0 -0.02 0.02 -0.02 0.02 c0 0.02 0.06 0.06 0.1 0.08 l0 -0.1 l-0.08 0 z M96.354 5.279999999999999 c0.02 0.02 0.04 0.08 0.04 0.08 c0.02 0 0.02 0 0.02 -0.02 l0 -0.12 l0 0 l-0.02 0 c0 0 -0.02 0.02 -0.04 0.06 z M94.054 5.18 l0 0.08 c0.04 -0.04 0.08 -0.06 0.08 -0.12 c0 -0.02 -0.04 -0.02 -0.06 -0.02 s-0.02 0.02 -0.02 0.02 l0 0.04 z M95.854 5.18 c0 0.04 0 0.06 0.04 0.08 c0.02 -0.02 0.04 -0.04 0.04 -0.08 l-0.08 0 z M105.634 5.18 l0 0.08 l0.02 0 z M106.134 5.140000000000001 l0 0.12 c0.06 0 0.08 -0.08 0.08 -0.12 l-0.08 0 z M106.294 5.140000000000001 c0 0.08 0.02 0.12 0.06 0.12 c0.02 0 0.02 0 0.02 -0.02 c0 -0.06 -0.04 -0.1 -0.06 -0.1 l-0.02 0 z M104.274 5.119999999999999 l-0.02 0.02 s0.08 0.08 0.14 0.08 c0 0 0.02 0 0.1 -0.08 c0 -0.02 -0.16 -0.02 -0.22 -0.02 z M107.81400000000001 5.140000000000001 c-0.06 0 -0.06 0.04 -0.06 0.1 c0.02 0 0.06 -0.06 0.1 -0.1 l-0.04 0 z M94.794 5.140000000000001 c0.02 0.04 0.02 0.06 0.04 0.06 s0.02 -0.02 0.04 -0.02 l0 -0.04 l-0.08 0 z M104.114 5.119999999999999 l0 0.02 l0.02 0 z M116.033 19.72 c0 -0.26 0.2 -0.38 0.2 -0.42 l1.66 0 c0.14 0 0.04 -0.02 0.3 -0.36 l0 -2.64 c0 -0.02 -0.04 -0.14 -0.04 -0.18 c0 -0.14 0.04 -0.16 0.04 -0.32 c0 -0.18 -0.04 -0.24 -0.04 -0.44 c0 -0.18 0.04 -0.12 0.04 -0.3 c0 -0.1 -0.06 -0.68 -0.06 -0.84 c0 -0.12 0.06 -0.22 0.06 -0.26 c-0.4 -1.02 -0.52 -1.36 -0.94 -1.88 c0 -0.3 -0.44 -0.4 -0.44 -0.78 c0.02 0 0.02 0 0.02 -0.02 s-0.7 -1.3 -0.88 -1.42 c-0.22 -0.22 -0.26 -0.28 -0.26 -0.3 s0.04 0 0.04 -0.06 c0 -0.08 -0.12 -0.36 -0.76 -1.3 c0.02 0 0.02 -0.02 0.02 -0.04 c0 -0.08 -0.36 -0.24 -0.36 -0.62 c0.02 0 0.02 -0.02 0.02 -0.02 c0 -0.12 -0.54 -0.4 -0.54 -0.78 c0 -0.3 -0.38 -0.7 -0.82 -1.16 c0 -0.32 0.32 -0.22 0.32 -0.32 c0 -0.08 -0.08 -0.08 -0.14 -0.08 c-0.04 0 -0.1 0.12 -0.16 0.12 c-0.18 0 -0.18 -0.12 -0.3 -0.12 c0 0.12 0.12 0.24 0.12 0.4 c0 0.04 -0.28 0.1 -0.4 0.1 c0 -0.02 -0.02 -0.02 -0.06 -0.02 c-0.08 0 -0.26 0.04 -0.42 0.04 c-0.2 0 -0.38 -0.06 -0.38 -0.32 c0 -0.22 0 -0.44 0.44 -0.44 c0.16 0.02 1.46 0.04 2.54 0.04 l3.14 0.02 c0.1 0 0.38 -0.02 0.44 -0.02 c0.02 0.04 0.26 0.02 0.26 0.16 c0 0.18 0.02 0.38 -0.18 0.48 c-0.46 0 -0.58 -0.04 -0.66 -0.04 c-0.08 0.1 -0.92 -0.02 -0.92 0.14 c0 0.58 0.5 0.68 0.5 1.04 c0 0.02 -0.02 0.04 -0.02 0.06 c0 0.08 0.34 0.28 0.34 0.48 c0 0.14 0.44 0.44 0.44 0.66 c0 0.4 0.54 0.72 0.54 1.02 c-0.02 0.02 -0.02 0.02 -0.02 0.04 c0 0.12 0.4 0.4 0.4 0.66 c0.06 0 0.14 0.5 0.38 0.68 c0.02 0 0.22 0.52 0.34 0.58 l-0.02 0 c0 0.04 0.2 0.24 0.2 0.38 c-0.02 0.1 0.42 0.44 0.42 0.64 c0 0.28 0.14 0.2 0.2 0.28 c0.28 0 0.4 -0.38 0.5 -0.64 c0.16 0 0.56 -1.32 0.74 -1.44 c0.08 -0.72 -0.18 0.56 0.62 -1.18 c0.18 -0.08 0.22 -0.64 0.36 -0.74 c0.02 0 0.46 -0.82 0.44 -0.78 c0 -0.32 0.68 -1 0.68 -1.38 l0.1 -0.08 c0 -0.26 0.02 -0.38 -0.1 -0.38 l-0.42 0 c-0.04 -0.02 -0.08 -0.04 -0.1 -0.08 l-0.54 0 c-0.06 0.12 -0.36 0.12 -0.52 0.12 c-0.2 0 -0.2 0.02 -0.52 -0.3 c0 -0.4 0.2 -0.3 0.32 -0.42 l1.06 0 c0.04 0 0.12 -0.04 0.14 -0.04 c0.16 0 0.28 0.04 0.4 0.08 c0.16 0 1.74 -0.08 1.8 -0.08 c0.18 0 0.26 0.04 0.4 0.04 c0.06 0 0.22 -0.04 0.32 -0.04 c0.02 0.04 0.04 0.04 0.06 0.04 c0.04 0 0.08 -0.02 0.14 -0.02 c0.1 0 0.22 0.06 0.36 0.34 c0 0.46 -0.38 0.42 -0.58 0.42 c-0.1 0 -0.52 0 -0.68 -0.1 l0.04 -0.04 c0 -0.08 -0.16 -0.08 -0.16 -0.08 c-0.32 0 -0.58 0.26 -0.84 0.66 c-0.08 0 -0.3 1.24 -0.82 1.48 c0 0.48 -0.34 0.54 -0.34 0.82 c0 0.02 0.02 0.02 0.02 0.04 c0 0.12 -0.26 0.24 -0.26 0.36 c-0.04 0.44 -0.3 0.46 -0.48 0.92 c-0.08 -0.18 -0.04 0.42 -0.18 0.46 c0.2 -0.06 -0.26 0.12 -0.26 0.4 c0.02 0 0.02 0 0.02 0.02 c0 -0.02 0 -0.02 -0.02 -0.02 c-0.04 0 -0.36 0.72 -0.46 0.78 c0 0.1 -0.16 0.28 -0.16 0.38 c0.02 0 0.02 0.02 0.02 0.04 c0 0.08 -0.36 0.32 -0.36 0.6 c-0.32 0.64 -0.32 0.6 -0.32 0.88 l0 3.42 c0 0.04 -0.06 0.18 -0.06 0.18 c0 0.02 0.02 0.08 0.06 0.18 l0 2 c0 0.22 0.08 0.3 0.26 0.3 c0.28 0 0.46 -0.04 1.22 -0.04 c0.26 0 0.52 0.02 0.64 0.14 c0 0.48 -0.1 0.44 -0.16 0.48 l0 -0.16 c-0.08 0 -0.18 -0.02 -0.18 0.08 c0 0.02 0.02 0.06 0.08 0.1 c-0.08 0 -0.18 0.06 -0.22 0.06 c-0.14 0 -0.46 -0.06 -0.68 -0.08 c-0.2 0 -0.12 0.02 -0.16 0.06 c-0.22 0 -0.38 -0.06 -0.4 -0.06 l-0.36 0 l0.04 0.02 l-0.08 0 c-0.04 0 -0.42 0.04 -0.46 0.04 c-0.74 0 -0.6 0 -0.74 -0.04 c-0.02 0 -0.16 0.04 -0.22 0.04 l-2.74 0 c-0.16 0 -0.28 0.04 -0.46 0.04 c-0.06 0 -0.44 -0.14 -0.44 -0.26 c0 -0.02 0.02 -0.04 0.04 -0.06 z M116.23299999999999 19.78 c0 0.12 0.06 0.16 0.14 0.16 l0.04 -0.02 l0 0.02 c0 -0.08 -0.02 -0.16 -0.18 -0.16 z M116.893 19.88 c0 0.06 0.02 0.06 0.04 0.06 c0.04 0 0.1 -0.08 0.12 -0.14 l-0.04 -0.04 c0 0.02 -0.12 0.02 -0.12 0.12 z M117.173 19.78 c0 0.08 0.08 0.16 0.2 0.16 c0.16 0 0.12 0 0.16 -0.02 c-0.04 -0.24 -0.02 -0.26 -0.12 -0.34 c-0.1 0 -0.24 0.18 -0.24 0.2 z M117.673 19.8 l0.02 0.04 c0.06 -0.06 0.02 -0.06 0.04 -0.06 c-0.04 0 -0.06 0 -0.06 0.02 z M121.853 19.78 l0 0.06 c0.04 0 0.06 -0.06 0.06 -0.06 l-0.06 0 z M120.893 19.8 l-0.04 -0.02 z M118.59299999999999 19.72 c-0.02 0 -0.04 0.02 -0.06 0.04 l0.06 0.02 l0 -0.06 z M116.193 19.66 l0 0.06 l0.08 0 c-0.04 -0.06 -0.06 -0.06 -0.08 -0.06 z M121.913 19.68 c-0.02 0 -0.04 0.02 -0.04 0.04 s0.02 0.04 0.04 0.04 s0.02 -0.02 0.02 -0.04 s0 -0.04 -0.02 -0.04 z M122.613 19.58 l0 0.08 c0.02 -0.02 0.04 -0.04 0.04 -0.08 l-0.04 0 z M122.853 19.62 l0.04 0.04 c0.06 -0.08 0.08 -0.1 0.08 -0.2 c-0.06 0 -0.12 0.02 -0.12 0.16 z M117.913 12.940000000000001 c-0.02 0 -0.02 0.02 -0.02 0.04 s0 0.04 0.02 0.04 s0.02 -0.02 0.02 -0.04 s0 -0.04 -0.02 -0.04 z M121.87299999999999 11.3 l0 0 c-0.02 0 -0.02 0.04 -0.02 0.04 c0.02 0 0.02 -0.02 0.02 -0.04 z M122.65299999999999 9.5 c0.02 0.06 0.04 0.12 0.06 0.14 c0 -0.08 0 -0.14 -0.06 -0.14 z M115.573 8.74 c-0.02 0 -0.04 0.02 -0.04 0.04 c0 0 0.02 0.02 0.04 0.02 s0.02 -0.02 0.02 -0.02 c0 -0.02 0 -0.04 -0.02 -0.04 z M123.87299999999999 7.380000000000001 c-0.08 0.06 -0.06 0.14 -0.06 0.16 c0.02 0 0.1 -0.06 0.1 -0.08 c0 -0.06 -0.02 -0.04 -0.04 -0.08 z M124.15299999999999 6.48 c-0.02 0 -0.04 0.02 -0.04 0.02 c0 0.02 0.02 0.02 0.04 0.02 l0 -0.04 z M124.59299999999999 6.039999999999999 c-0.02 0 -0.04 0.02 -0.04 0.02 c0 0.02 0.02 0.02 0.04 0.02 c0 0 0.02 0 0.02 -0.02 z M112.193 5.52 c-0.02 0 -0.04 0.02 -0.04 0.02 c0 0.02 0.02 0.04 0.04 0.04 s0.02 -0.02 0.02 -0.04 c0 0 0 -0.02 -0.02 -0.02 z M112.773 5.52 l0.04 0.02 c0.04 0 0.04 -0.02 0.04 -0.06 c-0.04 0 -0.06 0 -0.08 0.04 z M124.713 5.48 c0 0.02 -0.02 0.02 -0.02 0.04 s0.02 0.02 0.06 0.02 l0 -0.06 l-0.04 0 z M122.913 5.460000000000001 l0 0.02 l0.06 0 c-0.04 -0.02 -0.06 -0.02 -0.06 -0.02 z M125.953 5.460000000000001 c-0.02 0 -0.04 0.02 -0.04 0.04 c0 0 0.02 0.02 0.04 0.02 l0 -0.06 z M126.733 5.32 c-0.14 0 -0.12 0.08 -0.12 0.2 c0.08 -0.02 0.16 -0.04 0.16 -0.16 z M111.993 5.32 c0 0.04 0.08 0.1 0.1 0.14 l0 -0.08 c0 -0.04 0 -0.1 -0.02 -0.12 c-0.06 0 -0.08 0.02 -0.08 0.06 z M123.37299999999999 5.460000000000001 c0 -0.02 -0.02 -0.02 -0.02 -0.02 c-0.02 0 -0.02 0 -0.02 0.02 s0 0.02 0.02 0.02 c0 0 0.02 0 0.02 -0.02 z M112.573 5.18 c-0.02 0.02 -0.02 0.04 -0.02 0.06 c0 0.1 0.2 0.06 0.22 0.12 c0 0 0.04 0 0.06 -0.06 c-0.04 -0.04 -0.18 -0.12 -0.26 -0.12 z M122.473 5.32 c-0.02 0 -0.04 0.02 -0.04 0.02 c0 0.02 0.02 0.02 0.04 0.02 c0 0 0.02 0 0.02 -0.02 z M117.853 5.300000000000001 l0.04 0.02 l0.06 -0.02 l-0.04 -0.04 c-0.02 0 -0.04 0.02 -0.06 0.04 z M123.753 5.02 c0 0.04 0.04 0.3 0.22 0.3 c0.02 0 0.06 -0.02 0.06 -0.14 c0 -0.02 -0.22 -0.16 -0.28 -0.16 z M124.65299999999999 5.300000000000001 c-0.02 0 -0.04 0 -0.04 0.02 l0.04 0 l0.02 0 c0 -0.02 0 -0.02 -0.02 -0.02 z M118.633 5.26 l0 0 s-0.06 0 -0.06 0.04 c0.06 0 0.06 0 0.06 -0.04 z M125.953 5.18 l0 0 c-0.02 0 -0.04 0 -0.04 0.04 s0.02 0.08 0.04 0.08 l0 -0.12 z M126.193 5.300000000000001 c0 -0.02 -0.02 -0.02 -0.02 -0.02 c-0.02 0 -0.02 0 -0.02 0.02 s0 0.02 0.02 0.02 c0 0 0.02 0 0.02 -0.02 z M126.273 5.26 c-0.02 0 -0.04 0.02 -0.04 0.04 c0 0 0.02 0.02 0.04 0.02 l0.02 -0.02 c0 -0.02 -0.02 -0.04 -0.02 -0.04 z M126.273 5.220000000000001 c0.02 0.04 0.04 0.1 0.06 0.1 s0.02 -0.06 0.02 -0.1 c0 -0.02 0 -0.04 -0.02 -0.04 c-0.06 0 -0.06 0 -0.06 0.04 z M112.09299999999999 5.140000000000001 c0 0 -0.02 0.02 -0.02 0.04 l0.04 0 c0 -0.02 -0.02 -0.04 -0.02 -0.04 z M126.65299999999999 5.140000000000001 l0.02 -0.04 z"></path></g></svg>
